<svg width="159" height="56" viewBox="0 0 159 56" fill="none" xmlns="http://www.w3.org/2000/svg">
<path d="M89.8714 5.49716L88.8928 5.77415C88.8312 5.61103 88.7404 5.45253 88.6204 5.29865C88.5034 5.14169 88.3434 5.01243 88.1403 4.91087C87.9371 4.8093 87.6771 4.75852 87.3601 4.75852C86.9261 4.75852 86.5645 4.85855 86.2752 5.05859C85.989 5.25556 85.8459 5.50639 85.8459 5.81108C85.8459 6.08191 85.9444 6.29581 86.1413 6.45277C86.3383 6.60973 86.6461 6.74053 87.0646 6.84517L88.1172 7.10369C88.7512 7.25758 89.2236 7.49302 89.5344 7.81001C89.8453 8.12393 90.0007 8.52865 90.0007 9.02415C90.0007 9.4304 89.8838 9.79356 89.6499 10.1136C89.419 10.4337 89.0959 10.6861 88.6804 10.8707C88.2649 11.0554 87.7817 11.1477 87.2308 11.1477C86.5076 11.1477 85.909 10.9908 85.435 10.6768C84.9611 10.3629 84.661 9.90436 84.5348 9.30114L85.5689 9.04261C85.6674 9.42424 85.8536 9.71046 86.1275 9.90128C86.4045 10.0921 86.7661 10.1875 87.2124 10.1875C87.7202 10.1875 88.1233 10.0798 88.4219 9.86435C88.7235 9.64583 88.8743 9.38423 88.8743 9.07955C88.8743 8.83333 88.7881 8.62713 88.6158 8.46094C88.4434 8.29167 88.1787 8.16548 87.8217 8.08239L86.6399 7.8054C85.9905 7.65152 85.5135 7.413 85.2088 7.08984C84.9072 6.76361 84.7564 6.35582 84.7564 5.86648C84.7564 5.46638 84.8687 5.11245 85.0934 4.80469C85.3211 4.49692 85.6304 4.25533 86.0213 4.0799C86.4152 3.90447 86.8615 3.81676 87.3601 3.81676C88.0618 3.81676 88.6127 3.97064 89.0128 4.27841C89.416 4.58617 89.7022 4.99242 89.8714 5.49716ZM94.6137 11.1477C93.9305 11.1477 93.3411 10.9969 92.8456 10.6953C92.3532 10.3906 91.9731 9.96591 91.7053 9.42116C91.4407 8.87334 91.3083 8.23627 91.3083 7.50994C91.3083 6.78362 91.4407 6.14347 91.7053 5.58949C91.9731 5.03243 92.3455 4.59848 92.8225 4.28764C93.3026 3.97372 93.8628 3.81676 94.5029 3.81676C94.8722 3.81676 95.2369 3.87831 95.597 4.00142C95.9571 4.12453 96.2849 4.32457 96.5803 4.60156C96.8758 4.87547 97.1112 5.23864 97.2867 5.69105C97.4621 6.14347 97.5498 6.70052 97.5498 7.36222V7.82386H92.0839V6.8821H96.4419C96.4419 6.48201 96.3618 6.125 96.2018 5.81108C96.0448 5.49716 95.8202 5.24941 95.5278 5.06783C95.2385 4.88625 94.8969 4.79545 94.5029 4.79545C94.069 4.79545 93.6935 4.90317 93.3765 5.11861C93.0626 5.33097 92.821 5.60795 92.6517 5.94957C92.4825 6.29119 92.3978 6.65743 92.3978 7.0483V7.67614C92.3978 8.21165 92.4901 8.6656 92.6748 9.038C92.8625 9.40732 93.1226 9.68892 93.455 9.88281C93.7874 10.0736 94.1736 10.169 94.6137 10.169C94.8999 10.169 95.1585 10.129 95.3893 10.049C95.6232 9.96591 95.8248 9.8428 95.9941 9.67969C96.1633 9.51349 96.2941 9.30729 96.3865 9.06108L97.439 9.35653C97.3282 9.71354 97.142 10.0275 96.8804 10.2983C96.6188 10.5661 96.2957 10.7753 95.911 10.9261C95.5262 11.0739 95.0938 11.1477 94.6137 11.1477ZM102.088 11.1477C101.423 11.1477 100.851 10.9908 100.37 10.6768C99.8904 10.3629 99.521 9.93052 99.2625 9.37962C99.004 8.82872 98.8747 8.19934 98.8747 7.49148C98.8747 6.77131 99.0071 6.13577 99.2718 5.58487C99.5395 5.03089 99.9119 4.59848 100.389 4.28764C100.869 3.97372 101.429 3.81676 102.069 3.81676C102.568 3.81676 103.017 3.90909 103.417 4.09375C103.817 4.27841 104.145 4.53693 104.401 4.86932C104.656 5.2017 104.815 5.58949 104.876 6.03267H103.787C103.704 5.70952 103.519 5.4233 103.233 5.17401C102.95 4.92164 102.568 4.79545 102.088 4.79545C101.663 4.79545 101.291 4.90625 100.971 5.12784C100.654 5.34635 100.406 5.65566 100.227 6.05575C100.052 6.45277 99.9642 6.91903 99.9642 7.45455C99.9642 8.00237 100.05 8.4794 100.223 8.88565C100.398 9.2919 100.644 9.60736 100.961 9.83203C101.281 10.0567 101.657 10.169 102.088 10.169C102.371 10.169 102.628 10.1198 102.859 10.0213C103.09 9.92282 103.285 9.78125 103.445 9.59659C103.605 9.41193 103.719 9.19034 103.787 8.93182H104.876C104.815 9.35038 104.662 9.72739 104.419 10.0629C104.179 10.3952 103.861 10.6599 103.464 10.8569C103.07 11.0508 102.611 11.1477 102.088 11.1477ZM110.938 8.10085V3.90909H112.027V11H110.938V9.79972H110.864C110.698 10.1598 110.439 10.466 110.088 10.7184C109.737 10.9677 109.294 11.0923 108.759 11.0923C108.315 11.0923 107.921 10.9954 107.577 10.8015C107.232 10.6045 106.961 10.3091 106.764 9.91513C106.567 9.51811 106.469 9.01799 106.469 8.41477V3.90909H107.558V8.34091C107.558 8.85795 107.703 9.27036 107.992 9.57812C108.285 9.88589 108.657 10.0398 109.109 10.0398C109.38 10.0398 109.656 9.97053 109.936 9.83203C110.219 9.69354 110.456 9.48118 110.647 9.19496C110.841 8.90874 110.938 8.54403 110.938 8.10085ZM114.023 11V3.90909H115.075V4.98011H115.149C115.278 4.62926 115.512 4.34458 115.851 4.12606C116.189 3.90755 116.571 3.79829 116.996 3.79829C117.076 3.79829 117.176 3.79983 117.296 3.80291C117.416 3.80599 117.506 3.81061 117.568 3.81676V4.92472C117.531 4.91548 117.446 4.90163 117.314 4.88317C117.185 4.86162 117.048 4.85085 116.903 4.85085C116.559 4.85085 116.251 4.92318 115.98 5.06783C115.712 5.2094 115.5 5.40637 115.343 5.65874C115.189 5.90803 115.112 6.19271 115.112 6.51278V11H114.023ZM121.617 11.1477C120.933 11.1477 120.344 10.9969 119.849 10.6953C119.356 10.3906 118.976 9.96591 118.708 9.42116C118.444 8.87334 118.311 8.23627 118.311 7.50994C118.311 6.78362 118.444 6.14347 118.708 5.58949C118.976 5.03243 119.348 4.59848 119.825 4.28764C120.306 3.97372 120.866 3.81676 121.506 3.81676C121.875 3.81676 122.24 3.87831 122.6 4.00142C122.96 4.12453 123.288 4.32457 123.583 4.60156C123.879 4.87547 124.114 5.23864 124.29 5.69105C124.465 6.14347 124.553 6.70052 124.553 7.36222V7.82386H119.087V6.8821H123.445C123.445 6.48201 123.365 6.125 123.205 5.81108C123.048 5.49716 122.823 5.24941 122.531 5.06783C122.241 4.88625 121.9 4.79545 121.506 4.79545C121.072 4.79545 120.696 4.90317 120.379 5.11861C120.066 5.33097 119.824 5.60795 119.655 5.94957C119.485 6.29119 119.401 6.65743 119.401 7.0483V7.67614C119.401 8.21165 119.493 8.6656 119.678 9.038C119.865 9.40732 120.126 9.68892 120.458 9.88281C120.79 10.0736 121.177 10.169 121.617 10.169C121.903 10.169 122.161 10.129 122.392 10.049C122.626 9.96591 122.828 9.8428 122.997 9.67969C123.166 9.51349 123.297 9.30729 123.389 9.06108L124.442 9.35653C124.331 9.71354 124.145 10.0275 123.883 10.2983C123.622 10.5661 123.299 10.7753 122.914 10.9261C122.529 11.0739 122.097 11.1477 121.617 11.1477ZM128.888 11.1477C128.297 11.1477 127.775 10.9985 127.323 10.6999C126.87 10.3983 126.516 9.9736 126.261 9.42578C126.005 8.87488 125.878 8.22396 125.878 7.47301C125.878 6.72822 126.005 6.08191 126.261 5.53409C126.516 4.98627 126.872 4.56309 127.327 4.26456C127.783 3.96603 128.309 3.81676 128.906 3.81676C129.368 3.81676 129.732 3.8937 130 4.04759C130.271 4.19839 130.477 4.37074 130.619 4.56463C130.763 4.75544 130.876 4.91241 130.956 5.03551H131.048V1.54545H132.138V11H131.085V9.91051H130.956C130.876 10.0398 130.762 10.2029 130.614 10.3999C130.466 10.5937 130.256 10.7676 129.982 10.9215C129.708 11.0723 129.343 11.1477 128.888 11.1477ZM129.035 10.169C129.472 10.169 129.842 10.0552 130.143 9.82741C130.445 9.59659 130.674 9.27805 130.831 8.8718C130.988 8.46248 131.067 7.99006 131.067 7.45455C131.067 6.92519 130.99 6.462 130.836 6.06499C130.682 5.66489 130.454 5.35405 130.153 5.13246C129.851 4.90779 129.479 4.79545 129.035 4.79545C128.574 4.79545 128.189 4.91394 127.881 5.15092C127.577 5.38482 127.347 5.70336 127.193 6.10653C127.043 6.50663 126.967 6.95597 126.967 7.45455C126.967 7.95928 127.044 8.41785 127.198 8.83026C127.355 9.23958 127.586 9.56581 127.89 9.80895C128.198 10.049 128.58 10.169 129.035 10.169ZM138.088 11V1.54545H139.178V5.03551H139.27C139.35 4.91241 139.461 4.75544 139.602 4.56463C139.747 4.37074 139.953 4.19839 140.221 4.04759C140.492 3.8937 140.858 3.81676 141.32 3.81676C141.917 3.81676 142.443 3.96603 142.899 4.26456C143.354 4.56309 143.71 4.98627 143.965 5.53409C144.22 6.08191 144.348 6.72822 144.348 7.47301C144.348 8.22396 144.22 8.87488 143.965 9.42578C143.71 9.9736 143.356 10.3983 142.903 10.6999C142.451 10.9985 141.929 11.1477 141.338 11.1477C140.883 11.1477 140.518 11.0723 140.244 10.9215C139.97 10.7676 139.759 10.5937 139.612 10.3999C139.464 10.2029 139.35 10.0398 139.27 9.91051H139.141V11H138.088ZM139.159 7.45455C139.159 7.99006 139.238 8.46248 139.395 8.8718C139.552 9.27805 139.781 9.59659 140.083 9.82741C140.384 10.0552 140.753 10.169 141.191 10.169C141.646 10.169 142.026 10.049 142.331 9.80895C142.639 9.56581 142.869 9.23958 143.023 8.83026C143.18 8.41785 143.259 7.95928 143.259 7.45455C143.259 6.95597 143.182 6.50663 143.028 6.10653C142.877 5.70336 142.648 5.38482 142.34 5.15092C142.035 4.91394 141.652 4.79545 141.191 4.79545C140.747 4.79545 140.375 4.90779 140.073 5.13246C139.772 5.35405 139.544 5.66489 139.39 6.06499C139.236 6.462 139.159 6.92519 139.159 7.45455ZM146.463 13.6591C146.278 13.6591 146.113 13.6437 145.969 13.6129C145.824 13.5852 145.724 13.5575 145.669 13.5298L145.945 12.5696C146.21 12.6373 146.444 12.6619 146.647 12.6435C146.85 12.625 147.03 12.5342 147.187 12.3711C147.347 12.2111 147.494 11.951 147.626 11.5909L147.829 11.0369L145.207 3.90909H146.389L148.346 9.55966H148.42L150.377 3.90909H151.559L148.549 12.0341C148.414 12.4003 148.246 12.7035 148.046 12.9435C147.846 13.1867 147.614 13.3667 147.349 13.4837C147.087 13.6006 146.792 13.6591 146.463 13.6591Z" fill="white"/>
<path d="M25.9615 56C40.2997 56 51.9231 44.8071 51.9231 31C51.9231 17.1929 40.2997 6 25.9615 6C11.6234 6 0 17.1929 0 31C0 44.8071 11.6234 56 25.9615 56Z" fill="url(#paint0_radial_102_92)"/>
<path d="M25.9714 14.75C26.6107 14.75 27.2386 14.9109 27.7919 15.2187L39.4097 21.6781C39.9635 21.9862 40.4233 22.4292 40.7429 22.9627C41.0625 23.4962 41.2306 24.1013 41.2302 24.7172V37.8953C41.2302 39.1484 40.5374 40.3062 39.4097 40.9328L27.7903 47.3937C27.2365 47.7016 26.6084 47.8637 25.9689 47.8637C25.3295 47.8637 24.7013 47.7016 24.1476 47.3937L12.5265 40.9328C11.9728 40.6249 11.5129 40.1822 11.193 39.649C10.8732 39.1158 10.7047 38.511 10.7043 37.8953V24.7172C10.7043 23.464 11.3988 22.3062 12.5265 21.6781L24.1443 15.2187C24.6992 14.9109 25.3288 14.7484 25.9665 14.7484H25.9697L25.9714 14.75ZM25.9681 12.3109C24.8846 12.3115 23.8204 12.5863 22.8819 13.1078L11.2609 19.5656C10.3232 20.0888 9.54453 20.8397 9.00267 21.7435C8.46082 22.6472 8.17476 23.6721 8.1731 24.7156V37.8937C8.17476 38.9373 8.46082 39.9621 9.00267 40.8659C9.54453 41.7696 10.3232 42.5206 11.2609 43.0437L22.8787 49.5031C24.7901 50.5656 27.1445 50.5656 29.0543 49.5031L40.6737 43.0437C41.6114 42.5206 42.3901 41.7696 42.9319 40.8659C43.4738 39.9621 43.7598 38.9373 43.7615 37.8937V24.7156C43.7598 23.6721 43.4738 22.6472 42.9319 21.7435C42.3901 20.8397 41.6114 20.0888 40.6737 19.5656L29.0559 13.1047C28.1165 12.5827 27.0511 12.3079 25.9665 12.3078L25.9681 12.3109Z" fill="white"/>
<path d="M24.5449 33.375C24.4114 33.3752 24.2802 33.3415 24.1646 33.2773C24.0489 33.2131 23.9529 33.1207 23.8861 33.0094L22.4891 30.6765C22.4224 30.5654 22.3873 30.4393 22.3873 30.3109C22.3873 30.1826 22.4224 30.0565 22.4891 29.9453L23.8861 27.6125C23.9529 27.5012 24.0489 27.4087 24.1646 27.3446C24.2802 27.2804 24.4114 27.2467 24.5449 27.2469H27.3974C27.5306 27.2473 27.6613 27.2812 27.7766 27.3454C27.8919 27.4095 27.9877 27.5016 28.0546 27.6125L29.4533 29.9453C29.5199 30.0565 29.555 30.1826 29.555 30.3109C29.555 30.4393 29.5199 30.5654 29.4533 30.6765L28.0546 33.0094C27.988 33.1204 27.8922 33.2127 27.7768 33.2769C27.6615 33.3411 27.5306 33.3749 27.3974 33.375H24.5449V33.375ZM20.7334 29.7015C20.8668 29.7014 20.9979 29.6676 21.1135 29.6034C21.2291 29.5393 21.3252 29.447 21.3922 29.3359L22.7893 27.0031C22.8559 26.8919 22.891 26.7658 22.891 26.6375C22.891 26.5091 22.8559 26.383 22.7893 26.2719L21.0466 23.364L17.644 25.1515C17.522 25.2159 17.4207 25.3113 17.3512 25.4273C17.2817 25.5433 17.2466 25.6755 17.2497 25.8094C17.2773 27.1187 17.4363 28.4219 17.7219 29.7015H20.7334V29.7015ZM31.2073 29.7015C31.0741 29.7015 30.9432 29.6676 30.8279 29.6035C30.7125 29.5393 30.6167 29.447 30.5501 29.3359L29.1514 27.0031C29.0848 26.8919 29.0497 26.7658 29.0497 26.6375C29.0497 26.5091 29.0848 26.383 29.1514 26.2719L30.8941 23.364L34.2951 25.1515C34.4171 25.2156 34.5186 25.3106 34.5884 25.4263C34.6582 25.542 34.6937 25.674 34.691 25.8078C34.6633 27.1172 34.5057 28.421 34.2204 29.7015H31.2073V29.7015ZM26.3346 20.9656C26.2231 20.9071 26.0982 20.8764 25.9712 20.8764C25.8442 20.8764 25.7192 20.9071 25.6077 20.9656L22.1581 22.7781L23.8877 25.6625C23.9544 25.7736 24.0501 25.8658 24.1655 25.93C24.2808 25.9942 24.4117 26.028 24.5449 26.0281H27.3974C27.5307 26.0282 27.6616 25.9944 27.777 25.9302C27.8923 25.866 27.9881 25.7737 28.0546 25.6625L29.7843 22.7797L26.3346 20.9672V20.9656ZM18.0367 30.9203C18.6874 33.1497 19.7272 35.2563 21.1115 37.15L22.7909 34.35C22.8575 34.2388 22.8926 34.1127 22.8926 33.9844C22.8926 33.856 22.8575 33.7299 22.7909 33.6187L21.3922 31.2859C21.3256 31.1748 21.2298 31.0826 21.1145 31.0184C20.9991 30.9542 20.8683 30.9204 20.735 30.9203H18.0367ZM33.9024 30.9203C33.2521 33.1496 32.2129 35.2562 30.8292 37.15L29.1498 34.35C29.0832 34.2388 29.0481 34.1127 29.0481 33.9844C29.0481 33.856 29.0832 33.7299 29.1498 33.6187L30.5501 31.2859C30.6167 31.1748 30.7125 31.0826 30.8279 31.0184C30.9432 30.9542 31.0741 30.9204 31.2073 30.9203H33.904H33.9024ZM24.5449 34.5937C24.4114 34.5935 24.2802 34.6272 24.1646 34.6914C24.0489 34.7556 23.9529 34.848 23.8861 34.9594L21.939 38.2094C22.9876 39.464 24.1851 40.5962 25.5071 41.5828C25.6404 41.6815 25.8038 41.735 25.972 41.735C26.1401 41.735 26.3036 41.6815 26.4368 41.5828C27.7583 40.5956 28.9553 39.4629 30.0033 38.2078L28.0562 34.9594C27.9896 34.8483 27.8938 34.756 27.7785 34.6918C27.6631 34.6276 27.5323 34.5938 27.399 34.5937H24.5433H24.5449Z" fill="white"/>
<path d="M49.8038 26.3438V24.4545H61.0609V26.3438H56.5225V39H54.335V26.3438H49.8038ZM68.8041 34.4759V28.0909H70.9348V39H68.8467V37.1108H68.7331C68.4822 37.6932 68.0797 38.1785 67.5257 38.5668C66.9765 38.9503 66.2923 39.142 65.4732 39.142C64.7724 39.142 64.1521 38.9882 63.6124 38.6804C63.0773 38.3679 62.6559 37.9062 62.3482 37.2955C62.0451 36.6847 61.8936 35.9295 61.8936 35.0298V28.0909H64.0172V34.7741C64.0172 35.5175 64.2232 36.1094 64.6351 36.5497C65.047 36.9901 65.5821 37.2102 66.2402 37.2102C66.6379 37.2102 67.0333 37.1108 67.4263 36.9119C67.824 36.7131 68.1531 36.4124 68.4135 36.0099C68.6787 35.6075 68.8089 35.0961 68.8041 34.4759ZM73.7882 39V28.0909H75.8407V29.8239H75.9543C76.1532 29.2367 76.5036 28.7751 77.0055 28.4389C77.5121 28.098 78.085 27.9276 78.7242 27.9276C78.8568 27.9276 79.0131 27.9323 79.193 27.9418C79.3776 27.9512 79.5221 27.9631 79.6262 27.9773V30.0085C79.541 29.9848 79.3895 29.9588 79.1717 29.9304C78.9539 29.8973 78.7361 29.8807 78.5183 29.8807C78.0164 29.8807 77.5689 29.9872 77.1759 30.2003C76.7877 30.4086 76.4799 30.6998 76.2526 31.0739C76.0254 31.4432 75.9117 31.8646 75.9117 32.3381V39H73.7882ZM87.2008 28.0909V29.7955H81.242V28.0909H87.2008ZM82.84 25.4773H84.9636V35.7969C84.9636 36.2088 85.0251 36.5189 85.1482 36.7273C85.2713 36.9309 85.43 37.0705 85.6241 37.1463C85.823 37.2173 86.0384 37.2528 86.2704 37.2528C86.4409 37.2528 86.59 37.241 86.7178 37.2173C86.8457 37.1937 86.9451 37.1747 87.0161 37.1605L87.3997 38.9148C87.2766 38.9621 87.1014 39.0095 86.8741 39.0568C86.6468 39.1089 86.3627 39.1373 86.0218 39.142C85.4631 39.1515 84.9423 39.0521 84.4593 38.8438C83.9764 38.6354 83.5857 38.3134 83.2874 37.8778C82.9891 37.4422 82.84 36.8954 82.84 36.2372V25.4773ZM91.9078 24.4545V39H89.7842V24.4545H91.9078ZM99.4664 39.2202C98.3916 39.2202 97.4659 38.9905 96.6894 38.5312C95.9177 38.0672 95.3211 37.4162 94.8997 36.5781C94.483 35.7353 94.2747 34.7481 94.2747 33.6165C94.2747 32.4991 94.483 31.5142 94.8997 30.6619C95.3211 29.8097 95.9082 29.1444 96.661 28.6662C97.4186 28.188 98.304 27.9489 99.3173 27.9489C99.9328 27.9489 100.529 28.0507 101.107 28.2543C101.685 28.4579 102.203 28.7775 102.662 29.2131C103.122 29.6487 103.484 30.2145 103.749 30.9105C104.014 31.6018 104.147 32.4422 104.147 33.4318V34.1847H95.4749V32.5938H102.066C102.066 32.035 101.952 31.5402 101.725 31.1094C101.498 30.6738 101.178 30.3305 100.766 30.0795C100.359 29.8286 99.8807 29.7031 99.3315 29.7031C98.7349 29.7031 98.2141 29.8499 97.769 30.1435C97.3286 30.4323 96.9877 30.8111 96.7462 31.2798C96.5095 31.7438 96.3911 32.2481 96.3911 32.7926V34.0355C96.3911 34.7647 96.519 35.3849 96.7747 35.8963C97.0351 36.4077 97.3973 36.7983 97.8613 37.0682C98.3253 37.3333 98.8675 37.4659 99.4877 37.4659C99.8902 37.4659 100.257 37.4091 100.589 37.2955C100.92 37.1771 101.206 37.0019 101.448 36.7699C101.689 36.5379 101.874 36.2514 102.002 35.9105L104.012 36.2727C103.851 36.8646 103.562 37.383 103.145 37.8281C102.733 38.2685 102.215 38.6117 101.59 38.858C100.97 39.0994 100.262 39.2202 99.4664 39.2202ZM114.607 28.2756C114.531 27.6032 114.218 27.0824 113.669 26.7131C113.12 26.339 112.429 26.152 111.595 26.152C110.999 26.152 110.483 26.2467 110.047 26.4361C109.611 26.6207 109.273 26.8764 109.031 27.2031C108.795 27.5251 108.676 27.892 108.676 28.304C108.676 28.6496 108.757 28.9479 108.918 29.1989C109.083 29.4498 109.299 29.6605 109.564 29.831C109.834 29.9967 110.123 30.1364 110.431 30.25C110.738 30.3589 111.034 30.4489 111.318 30.5199L112.739 30.8892C113.203 31.0028 113.679 31.1567 114.166 31.3509C114.654 31.545 115.106 31.8007 115.523 32.1179C115.94 32.4351 116.276 32.8281 116.531 33.2969C116.792 33.7656 116.922 34.3267 116.922 34.9801C116.922 35.804 116.709 36.5355 116.283 37.1747C115.861 37.8139 115.248 38.3182 114.443 38.6875C113.643 39.0568 112.675 39.2415 111.539 39.2415C110.449 39.2415 109.507 39.0687 108.712 38.723C107.916 38.3774 107.294 37.8873 106.844 37.2528C106.394 36.6136 106.146 35.8561 106.098 34.9801H108.3C108.342 35.5057 108.513 35.9437 108.811 36.294C109.114 36.6397 109.5 36.8977 109.969 37.0682C110.442 37.2339 110.961 37.3168 111.524 37.3168C112.145 37.3168 112.696 37.2197 113.179 37.0256C113.667 36.8267 114.05 36.5521 114.33 36.2017C114.609 35.8466 114.749 35.4323 114.749 34.9588C114.749 34.5279 114.626 34.1752 114.379 33.9006C114.138 33.6259 113.809 33.3987 113.392 33.2188C112.98 33.0388 112.514 32.8802 111.993 32.7429L110.274 32.2741C109.11 31.9569 108.186 31.4905 107.504 30.875C106.827 30.2595 106.489 29.4451 106.489 28.4318C106.489 27.5937 106.716 26.8622 107.171 26.2372C107.625 25.6122 108.241 25.1269 109.017 24.7812C109.794 24.4309 110.67 24.2557 111.645 24.2557C112.63 24.2557 113.499 24.4285 114.252 24.7741C115.009 25.1198 115.606 25.5956 116.041 26.2017C116.477 26.803 116.704 27.4943 116.723 28.2756H114.607ZM121.498 32.5227V39H119.374V24.4545H121.469V29.8665H121.604C121.86 29.2794 122.251 28.813 122.776 28.4673C123.302 28.1217 123.988 27.9489 124.836 27.9489C125.584 27.9489 126.237 28.1027 126.796 28.4105C127.359 28.7183 127.795 29.1776 128.103 29.7884C128.415 30.3944 128.572 31.152 128.572 32.0611V39H126.448V32.3168C126.448 31.5166 126.242 30.8963 125.83 30.456C125.418 30.0109 124.845 29.7884 124.111 29.7884C123.609 29.7884 123.16 29.8949 122.762 30.108C122.369 30.321 122.059 30.6335 121.831 31.0455C121.609 31.4527 121.498 31.9451 121.498 32.5227ZM136.107 39.2202C135.032 39.2202 134.107 38.9905 133.33 38.5312C132.558 38.0672 131.962 37.4162 131.54 36.5781C131.124 35.7353 130.915 34.7481 130.915 33.6165C130.915 32.4991 131.124 31.5142 131.54 30.6619C131.962 29.8097 132.549 29.1444 133.302 28.6662C134.059 28.188 134.945 27.9489 135.958 27.9489C136.573 27.9489 137.17 28.0507 137.748 28.2543C138.325 28.4579 138.844 28.7775 139.303 29.2131C139.762 29.6487 140.125 30.2145 140.39 30.9105C140.655 31.6018 140.787 32.4422 140.787 33.4318V34.1847H132.116V32.5938H138.706C138.706 32.035 138.593 31.5402 138.366 31.1094C138.138 30.6738 137.819 30.3305 137.407 30.0795C137 29.8286 136.521 29.7031 135.972 29.7031C135.376 29.7031 134.855 29.8499 134.41 30.1435C133.969 30.4323 133.628 30.8111 133.387 31.2798C133.15 31.7438 133.032 32.2481 133.032 32.7926V34.0355C133.032 34.7647 133.16 35.3849 133.415 35.8963C133.676 36.4077 134.038 36.7983 134.502 37.0682C134.966 37.3333 135.508 37.4659 136.128 37.4659C136.531 37.4659 136.898 37.4091 137.229 37.2955C137.561 37.1771 137.847 37.0019 138.089 36.7699C138.33 36.5379 138.515 36.2514 138.643 35.9105L140.652 36.2727C140.492 36.8646 140.203 37.383 139.786 37.8281C139.374 38.2685 138.856 38.6117 138.231 38.858C137.61 39.0994 136.902 39.2202 136.107 39.2202ZM145.267 24.4545V39H143.144V24.4545H145.267ZM150.248 24.4545V39H148.124V24.4545H150.248Z" fill="white"/>
<defs>
<radialGradient id="paint0_radial_102_92" cx="0" cy="0" r="1" gradientUnits="userSpaceOnUse" gradientTransform="translate(25.9615 31) rotate(90) scale(25 25.9615)">
<stop stop-color="#8772FF"/>
<stop offset="0.875" stop-color="#8A75FF" stop-opacity="0"/>
</radialGradient>
</defs>
</svg>
