<svg width="137" height="33" viewBox="0 0 137 33" fill="none" xmlns="http://www.w3.org/2000/svg">
<rect width="137" height="33" rx="16.5" fill="white" fill-opacity="0.15"/>
<path d="M26.5742 10.0909V21H25.2532V10.0909H26.5742ZM38.4274 17.6548V12.8182H39.6845V21H38.4274V19.6151H38.3422C38.1504 20.0305 37.8521 20.3839 37.4473 20.6751C37.0425 20.9627 36.5311 21.1065 35.9132 21.1065C35.4019 21.1065 34.9473 20.9947 34.5496 20.771C34.1519 20.5437 33.8394 20.2028 33.6121 19.7482C33.3848 19.2901 33.2712 18.7131 33.2712 18.017V12.8182H34.5283V17.9318C34.5283 18.5284 34.6952 19.0043 35.029 19.3594C35.3663 19.7145 35.796 19.892 36.318 19.892C36.6305 19.892 36.9484 19.8121 37.2715 19.6523C37.5982 19.4925 37.8717 19.2475 38.0918 18.9173C38.3156 18.587 38.4274 18.1662 38.4274 17.6548ZM43.2441 16.0781V21H41.987V12.8182H43.2015V14.0966H43.308C43.4998 13.6811 43.791 13.3473 44.1816 13.0952C44.5722 12.8395 45.0765 12.7116 45.6944 12.7116C46.2484 12.7116 46.7331 12.8253 47.1486 13.0526C47.5641 13.2763 47.8872 13.6172 48.118 14.0753C48.3489 14.5298 48.4643 15.1051 48.4643 15.8011V21H47.2072V15.8864C47.2072 15.2436 47.0403 14.7429 46.7065 14.3842C46.3726 14.022 45.9146 13.8409 45.3322 13.8409C44.9309 13.8409 44.5722 13.9279 44.2562 14.1019C43.9437 14.2759 43.6969 14.5298 43.5158 14.8636C43.3347 15.1974 43.2441 15.6023 43.2441 16.0781ZM53.8509 21.1705C53.1691 21.1705 52.5672 20.9982 52.0451 20.6538C51.5231 20.3058 51.1147 19.8157 50.82 19.1836C50.5253 18.5479 50.3779 17.7969 50.3779 16.9304C50.3779 16.071 50.5253 15.3253 50.82 14.6932C51.1147 14.0611 51.5249 13.5728 52.0505 13.2283C52.576 12.8839 53.1833 12.7116 53.8722 12.7116C54.4049 12.7116 54.8257 12.8004 55.1346 12.978C55.4471 13.152 55.6851 13.3509 55.8484 13.5746C56.0153 13.7947 56.1449 13.9759 56.2373 14.1179H56.3438V10.0909H57.6009V21H56.3864V19.7429H56.2373C56.1449 19.892 56.0135 20.0803 55.8431 20.3075C55.6726 20.5312 55.4294 20.7319 55.1133 20.9094C54.7973 21.0835 54.3765 21.1705 53.8509 21.1705ZM54.0214 20.0412C54.5256 20.0412 54.9517 19.9098 55.2998 19.647C55.6478 19.3807 55.9123 19.0131 56.0934 18.5444C56.2745 18.0721 56.3651 17.527 56.3651 16.9091C56.3651 16.2983 56.2763 15.7638 56.0988 15.3058C55.9212 14.8441 55.6584 14.4854 55.3104 14.2298C54.9624 13.9705 54.5327 13.8409 54.0214 13.8409C53.4887 13.8409 53.0448 13.9776 52.6897 14.2511C52.3381 14.521 52.0736 14.8885 51.896 15.3537C51.722 15.8153 51.635 16.3338 51.635 16.9091C51.635 17.4915 51.7238 18.0206 51.9013 18.4964C52.0824 18.9687 52.3488 19.3452 52.7003 19.6257C53.0554 19.9027 53.4958 20.0412 54.0214 20.0412ZM63.5082 21.1705C62.7199 21.1705 62.0398 20.9964 61.4681 20.6484C60.8999 20.2969 60.4613 19.8068 60.1524 19.1783C59.847 18.5462 59.6943 17.8111 59.6943 16.973C59.6943 16.1349 59.847 15.3963 60.1524 14.7571C60.4613 14.1143 60.891 13.6136 61.4415 13.255C61.9954 12.8928 62.6417 12.7116 63.3804 12.7116C63.8065 12.7116 64.2273 12.7827 64.6428 12.9247C65.0583 13.0668 65.4365 13.2976 65.7774 13.6172C66.1183 13.9332 66.39 14.3523 66.5924 14.8743C66.7948 15.3963 66.896 16.0391 66.896 16.8026V17.3352H60.5892V16.2486H65.6176C65.6176 15.7869 65.5253 15.375 65.3406 15.0128C65.1595 14.6506 64.9003 14.3647 64.5629 14.1552C64.2291 13.9457 63.8349 13.8409 63.3804 13.8409C62.8797 13.8409 62.4464 13.9652 62.0807 14.2138C61.7184 14.4588 61.4397 14.7784 61.2444 15.1726C61.0491 15.5668 60.9514 15.9893 60.9514 16.4403V17.1648C60.9514 17.7827 61.0579 18.3065 61.271 18.7362C61.4876 19.1623 61.7877 19.4872 62.1712 19.7109C62.5547 19.9311 63.0004 20.0412 63.5082 20.0412C63.8385 20.0412 64.1368 19.995 64.4031 19.9027C64.673 19.8068 64.9056 19.6648 65.1009 19.4766C65.2962 19.2848 65.4471 19.0469 65.5537 18.7628L66.7682 19.1037C66.6403 19.5156 66.4255 19.8778 66.1236 20.1903C65.8218 20.4993 65.4489 20.7408 65.005 20.9148C64.5611 21.0852 64.0622 21.1705 63.5082 21.1705ZM68.8083 21V12.8182H70.0228V14.054H70.108C70.2571 13.6491 70.527 13.3207 70.9177 13.0685C71.3083 12.8164 71.7486 12.6903 72.2387 12.6903C72.331 12.6903 72.4464 12.6921 72.5849 12.6957C72.7234 12.6992 72.8282 12.7045 72.8992 12.7116V13.9901C72.8566 13.9794 72.7589 13.9634 72.6062 13.9421C72.4571 13.9173 72.2991 13.9048 72.1321 13.9048C71.7344 13.9048 71.3793 13.9883 71.0668 14.1552C70.7579 14.3185 70.5128 14.5458 70.3317 14.837C70.1542 15.1246 70.0654 15.4531 70.0654 15.8224V21H68.8083ZM80.1848 14.6506L79.0555 14.9702C78.9845 14.782 78.8797 14.5991 78.7413 14.4215C78.6063 14.2404 78.4217 14.0913 78.1873 13.9741C77.9529 13.8569 77.6528 13.7983 77.2871 13.7983C76.7864 13.7983 76.3691 13.9137 76.0353 14.1445C75.705 14.3718 75.5399 14.6612 75.5399 15.0128C75.5399 15.3253 75.6535 15.5721 75.8808 15.7532C76.1081 15.9343 76.4632 16.0852 76.9462 16.206L78.1606 16.5043C78.8922 16.6818 79.4373 16.9535 79.7959 17.3192C80.1546 17.6815 80.3339 18.1484 80.3339 18.7202C80.3339 19.1889 80.199 19.608 79.9291 19.9773C79.6628 20.3466 79.2899 20.6378 78.8105 20.8509C78.3311 21.0639 77.7736 21.1705 77.1379 21.1705C76.3034 21.1705 75.6127 20.9893 75.0658 20.6271C74.519 20.2649 74.1727 19.7358 74.0271 19.0398L75.2203 18.7415C75.3339 19.1818 75.5488 19.5121 75.8648 19.7322C76.1844 19.9524 76.6017 20.0625 77.1166 20.0625C77.7025 20.0625 78.1677 19.9382 78.5122 19.6896C78.8602 19.4375 79.0342 19.1357 79.0342 18.7841C79.0342 18.5 78.9348 18.2621 78.7359 18.0703C78.5371 17.875 78.2317 17.7294 77.8197 17.6335L76.4561 17.3139C75.7068 17.1364 75.1564 16.8612 74.8048 16.4883C74.4568 16.1119 74.2828 15.6413 74.2828 15.0767C74.2828 14.6151 74.4124 14.2067 74.6717 13.8516C74.9344 13.4964 75.2913 13.2177 75.7423 13.0153C76.1969 12.8129 76.7118 12.7116 77.2871 12.7116C78.0967 12.7116 78.7324 12.8892 79.194 13.2443C79.6592 13.5994 79.9895 14.0682 80.1848 14.6506ZM85.7845 12.8182V13.8835H81.5444V12.8182H85.7845ZM82.7802 10.858H84.0373V18.6562C84.0373 19.0114 84.0888 19.2777 84.1918 19.4553C84.2983 19.6293 84.4333 19.7464 84.5966 19.8068C84.7635 19.8636 84.9393 19.892 85.124 19.892C85.2625 19.892 85.3761 19.8849 85.4649 19.8707C85.5537 19.853 85.6247 19.8388 85.678 19.8281L85.9336 20.9574C85.8484 20.9893 85.7294 21.0213 85.5767 21.0533C85.4241 21.0888 85.2305 21.1065 84.9961 21.1065C84.641 21.1065 84.293 21.0302 83.9521 20.8775C83.6147 20.7248 83.3342 20.4922 83.1105 20.1797C82.8903 19.8672 82.7802 19.473 82.7802 18.9972V10.858ZM90.0831 21.1918C89.5647 21.1918 89.0941 21.0941 88.6716 20.8988C88.249 20.6999 87.9134 20.4141 87.6648 20.0412C87.4162 19.6648 87.2919 19.2102 87.2919 18.6776C87.2919 18.2088 87.3843 17.8288 87.5689 17.5376C87.7536 17.2429 88.0004 17.0121 88.3093 16.8452C88.6183 16.6783 88.9592 16.554 89.3321 16.4723C89.7085 16.3871 90.0867 16.3196 90.4667 16.2699C90.9638 16.206 91.3669 16.158 91.6758 16.1261C91.9883 16.0906 92.2156 16.032 92.3576 15.9503C92.5032 15.8686 92.576 15.7266 92.576 15.5241V15.4815C92.576 14.956 92.4322 14.5476 92.1446 14.2564C91.8605 13.9652 91.429 13.8196 90.8502 13.8196C90.25 13.8196 89.7795 13.951 89.4386 14.2138C89.0977 14.4766 88.858 14.7571 88.7195 15.0554L87.5263 14.6293C87.7394 14.1321 88.0235 13.745 88.3786 13.468C88.7373 13.1875 89.1279 12.9922 89.5505 12.8821C89.9766 12.7685 90.3956 12.7116 90.8076 12.7116C91.0704 12.7116 91.3722 12.7436 91.7131 12.8075C92.0576 12.8679 92.3896 12.994 92.7092 13.1857C93.0324 13.3775 93.3005 13.6669 93.5135 14.054C93.7266 14.4411 93.8331 14.9595 93.8331 15.6094V21H92.576V19.892H92.5121C92.4269 20.0696 92.2848 20.2596 92.086 20.462C91.8871 20.6644 91.6226 20.8366 91.2923 20.9787C90.962 21.1207 90.559 21.1918 90.0831 21.1918ZM90.2749 20.0625C90.7721 20.0625 91.1911 19.9648 91.532 19.7695C91.8765 19.5742 92.1357 19.3221 92.3097 19.0131C92.4873 18.7042 92.576 18.3793 92.576 18.0384V16.8878C92.5228 16.9517 92.4056 17.0103 92.2245 17.0636C92.0469 17.1133 91.841 17.1577 91.6066 17.1967C91.3758 17.2322 91.1503 17.2642 90.9301 17.2926C90.7135 17.3175 90.5377 17.3388 90.4027 17.3565C90.076 17.3991 89.7706 17.4684 89.4866 17.5643C89.206 17.6566 88.9787 17.7969 88.8047 17.9851C88.6343 18.1697 88.5491 18.4219 88.5491 18.7415C88.5491 19.1783 88.7106 19.5085 89.0338 19.7322C89.3605 19.9524 89.7742 20.0625 90.2749 20.0625ZM97.3847 16.0781V21H96.1276V12.8182H97.3421V14.0966H97.4486C97.6404 13.6811 97.9316 13.3473 98.3222 13.0952C98.7128 12.8395 99.2171 12.7116 99.835 12.7116C100.389 12.7116 100.874 12.8253 101.289 13.0526C101.705 13.2763 102.028 13.6172 102.259 14.0753C102.489 14.5298 102.605 15.1051 102.605 15.8011V21H101.348V15.8864C101.348 15.2436 101.181 14.7429 100.847 14.3842C100.513 14.022 100.055 13.8409 99.4728 13.8409C99.0715 13.8409 98.7128 13.9279 98.3968 14.1019C98.0843 14.2759 97.8375 14.5298 97.6564 14.8636C97.4753 15.1974 97.3847 15.6023 97.3847 16.0781ZM107.992 21.1705C107.31 21.1705 106.708 20.9982 106.186 20.6538C105.664 20.3058 105.255 19.8157 104.961 19.1836C104.666 18.5479 104.519 17.7969 104.519 16.9304C104.519 16.071 104.666 15.3253 104.961 14.6932C105.255 14.0611 105.666 13.5728 106.191 13.2283C106.717 12.8839 107.324 12.7116 108.013 12.7116C108.545 12.7116 108.966 12.8004 109.275 12.978C109.588 13.152 109.826 13.3509 109.989 13.5746C110.156 13.7947 110.286 13.9759 110.378 14.1179H110.484V10.0909H111.742V21H110.527V19.7429H110.378C110.286 19.892 110.154 20.0803 109.984 20.3075C109.813 20.5312 109.57 20.7319 109.254 20.9094C108.938 21.0835 108.517 21.1705 107.992 21.1705ZM108.162 20.0412C108.666 20.0412 109.092 19.9098 109.44 19.647C109.788 19.3807 110.053 19.0131 110.234 18.5444C110.415 18.0721 110.506 17.527 110.506 16.9091C110.506 16.2983 110.417 15.7638 110.239 15.3058C110.062 14.8441 109.799 14.4854 109.451 14.2298C109.103 13.9705 108.673 13.8409 108.162 13.8409C107.629 13.8409 107.185 13.9776 106.83 14.2511C106.479 14.521 106.214 14.8885 106.037 15.3537C105.863 15.8153 105.776 16.3338 105.776 16.9091C105.776 17.4915 105.864 18.0206 106.042 18.4964C106.223 18.9687 106.489 19.3452 106.841 19.6257C107.196 19.9027 107.636 20.0412 108.162 20.0412Z" fill="white"/>
<rect x="0.5" y="0.5" width="136" height="32" rx="16" stroke="white" stroke-opacity="0.35"/>
</svg>
