<svg width="48" height="48" viewBox="0 0 48 48" fill="none" xmlns="http://www.w3.org/2000/svg">
<g filter="url(#filter0_d_11_92)">
<path d="M44 20C44 31.0457 35.0457 40 24 40C12.9543 40 4 31.0457 4 20C4 8.9543 12.9543 0 24 0C35.0457 0 44 8.9543 44 20Z" fill="url(#paint0_linear_11_92)"/>
</g>
<path d="M44.2441 6.69453C44.0258 6.47445 43.7661 6.29978 43.4799 6.18057C43.1938 6.06137 42.8869 6 42.5769 6C42.2669 6 41.96 6.06137 41.6739 6.18057C41.3877 6.29978 41.128 6.47445 40.9098 6.69453L23.4163 24.2104L16.0667 16.8378C15.8401 16.6188 15.5726 16.4467 15.2794 16.3312C14.9862 16.2156 14.6731 16.159 14.3581 16.1644C14.043 16.1699 13.7321 16.2373 13.4431 16.3629C13.1541 16.4885 12.8927 16.6698 12.6737 16.8965C12.4548 17.1231 12.2826 17.3906 12.1671 17.6838C12.0516 17.9769 11.9949 18.29 12.0004 18.605C12.0058 18.9201 12.0733 19.231 12.1989 19.5199C12.3245 19.8089 12.5058 20.0704 12.7324 20.2893L21.7492 29.3055C21.9675 29.5255 22.2272 29.7002 22.5133 29.8194C22.7994 29.9386 23.1064 30 23.4163 30C23.7263 30 24.0332 29.9386 24.3194 29.8194C24.6055 29.7002 24.8652 29.5255 25.0835 29.3055L44.2441 10.146C44.4824 9.92617 44.6726 9.65932 44.8027 9.3623C44.9328 9.06529 45 8.74454 45 8.42028C45 8.09602 44.9328 7.77528 44.8027 7.47826C44.6726 7.18125 44.4824 6.91439 44.2441 6.69453Z" fill="#D9D9D9"/>
<defs>
<filter id="filter0_d_11_92" x="0" y="0" width="48" height="48" filterUnits="userSpaceOnUse" color-interpolation-filters="sRGB">
<feFlood flood-opacity="0" result="BackgroundImageFix"/>
<feColorMatrix in="SourceAlpha" type="matrix" values="0 0 0 0 0 0 0 0 0 0 0 0 0 0 0 0 0 0 127 0" result="hardAlpha"/>
<feOffset dy="4"/>
<feGaussianBlur stdDeviation="2"/>
<feComposite in2="hardAlpha" operator="out"/>
<feColorMatrix type="matrix" values="0 0 0 0 0 0 0 0 0 0 0 0 0 0 0 0 0 0 0.25 0"/>
<feBlend mode="normal" in2="BackgroundImageFix" result="effect1_dropShadow_11_92"/>
<feBlend mode="normal" in="SourceGraphic" in2="effect1_dropShadow_11_92" result="shape"/>
</filter>
<linearGradient id="paint0_linear_11_92" x1="0.5" y1="1.5" x2="51" y2="41" gradientUnits="userSpaceOnUse">
<stop stop-color="#B341B1"/>
<stop offset="1" stop-color="#3585E0"/>
</linearGradient>
</defs>
</svg>
