<svg width="40" height="40" viewBox="0 0 40 40" fill="none" xmlns="http://www.w3.org/2000/svg">
<path d="M20 0C16.0444 0 12.1776 1.17298 8.88859 3.37061C5.5996 5.56824 3.03615 8.69181 1.52239 12.3463C0.00863588 16.0009 -0.387434 20.0222 0.384276 23.9018C1.15598 27.7814 3.0608 31.3451 5.85785 34.1421C8.65489 36.9392 12.2186 38.844 16.0982 39.6157C19.9778 40.3874 23.9991 39.9913 27.6537 38.4776C31.3082 36.9638 34.4318 34.4004 36.6294 31.1114C38.827 27.8224 40 23.9556 40 20C40 17.3736 39.4827 14.7728 38.4776 12.3463C37.4725 9.91982 35.9993 7.71504 34.1421 5.85786C32.285 4.00069 30.0802 2.5275 27.6537 1.52241C25.2272 0.517315 22.6264 0 20 0ZM20 36C16.8355 36 13.7421 35.0616 11.1109 33.3035C8.47969 31.5454 6.42889 29.0466 5.21791 26.1229C4.00691 23.1993 3.69006 19.9823 4.30742 16.8786C4.92478 13.7749 6.44859 10.9239 8.68629 8.68629C10.9239 6.44865 13.7749 4.9248 16.8785 4.30744C19.9822 3.69007 23.1993 4.00693 26.1229 5.21793C29.0465 6.42893 31.5454 8.47969 33.3035 11.1109C35.0616 13.7421 36 16.8355 36 20C36 24.2435 34.3143 28.3131 31.3137 31.3137C28.3131 34.3143 24.2435 36 20 36Z" fill="black"/>
</svg>
