<svg width="104" height="115" viewBox="0 0 104 115" fill="none" xmlns="http://www.w3.org/2000/svg">
<path d="M52.028 8.07508C53.8749 8.07508 55.689 8.55467 57.2874 9.47196L90.8499 28.7209C92.4498 29.639 93.7781 30.9593 94.7013 32.549C95.6246 34.1388 96.1102 35.942 96.1093 37.7773V77.0481C96.1093 80.7824 94.1077 84.2327 90.8499 86.0999L57.2827 105.353C55.683 106.271 53.8682 106.754 52.021 106.754C50.1737 106.754 48.359 106.271 46.7593 105.353L13.1874 86.0999C11.5877 85.1824 10.2591 83.863 9.33512 82.2742C8.41113 80.6853 7.92424 78.883 7.92334 77.0481V37.7773C7.92334 34.043 9.92959 30.5927 13.1874 28.7209L46.7499 9.47196C48.353 8.55467 50.1718 8.07042 52.014 8.07042H52.0233L52.028 8.07508ZM52.0187 0.806675C48.8886 0.808498 45.8141 1.62741 43.103 3.18136L9.53115 22.4256C6.82229 23.9846 4.57276 26.2225 3.0074 28.9156C1.44203 31.6088 0.61565 34.6628 0.61084 37.7726V77.0434C0.61565 80.1532 1.44203 83.2073 3.0074 85.9005C4.57276 88.5936 6.82229 90.8315 9.53115 92.3904L43.0937 111.639C48.6155 114.806 55.4171 114.806 60.9343 111.639L94.5015 92.3904C97.2103 90.8315 99.4599 88.5936 101.025 85.9005C102.591 83.2073 103.417 80.1532 103.422 77.0434V37.7726C103.417 34.6628 102.591 31.6088 101.025 28.9156C99.4599 26.2225 97.2103 23.9846 94.5015 22.4256L60.939 3.17205C58.2252 1.61652 55.1472 0.797553 52.014 0.797363L52.0187 0.806675Z" fill="white"/>
<path d="M47.9076 63.5776C47.522 63.5781 47.143 63.4777 46.8089 63.2864C46.4747 63.0951 46.1973 62.8197 46.0045 62.488L41.9685 55.5362C41.776 55.2049 41.6746 54.8292 41.6746 54.4466C41.6746 54.0641 41.776 53.6883 41.9685 53.3571L46.0045 46.4053C46.1973 46.0735 46.4747 45.7982 46.8089 45.6069C47.143 45.4156 47.522 45.3152 47.9076 45.3157H56.1482C56.5329 45.3169 56.9105 45.4181 57.2436 45.6093C57.5766 45.8004 57.8535 46.0749 58.0467 46.4053L62.0873 53.3571C62.2798 53.6883 62.3812 54.0641 62.3812 54.4466C62.3812 54.8292 62.2798 55.2049 62.0873 55.5362L58.0467 62.488C57.8542 62.819 57.5775 63.094 57.2443 63.2853C56.9111 63.4765 56.5331 63.5773 56.1482 63.5776H47.9076V63.5776ZM36.8967 52.6307C37.2821 52.6303 37.6607 52.5295 37.9947 52.3383C38.3286 52.1471 38.6062 51.8723 38.7998 51.5411L42.8357 44.5894C43.0283 44.2581 43.1296 43.8823 43.1296 43.4998C43.1296 43.1173 43.0283 42.7415 42.8357 42.4102L37.8013 33.745L27.9717 39.0717C27.6193 39.2635 27.3267 39.5477 27.1258 39.8934C26.9249 40.2391 26.8235 40.633 26.8326 41.032C26.9123 44.9339 27.3717 48.8172 28.1967 52.6307H36.8967V52.6307ZM67.1545 52.6307C66.7696 52.6305 66.3916 52.5297 66.0584 52.3384C65.7252 52.1472 65.4484 51.8722 65.256 51.5411L61.2154 44.5894C61.0229 44.2581 60.9215 43.8823 60.9215 43.4998C60.9215 43.1173 61.0229 42.7415 61.2154 42.4102L66.2498 33.745L76.0748 39.0717C76.4273 39.2625 76.7204 39.5457 76.9221 39.8906C77.1237 40.2354 77.2263 40.6286 77.2185 41.0273C77.1385 44.9293 76.6833 48.8148 75.8592 52.6307H67.1545V52.6307ZM53.0779 26.5976C52.7558 26.4232 52.3948 26.3318 52.0279 26.3318C51.661 26.3318 51.3 26.4232 50.9779 26.5976L41.0123 31.9989L46.0092 40.5943C46.2016 40.9254 46.4783 41.2003 46.8115 41.3916C47.1447 41.5828 47.5227 41.6836 47.9076 41.6839H56.1482C56.5332 41.6841 56.9114 41.5835 57.2447 41.3922C57.578 41.2009 57.8546 40.9257 58.0467 40.5943L63.0435 32.0035L53.0779 26.6023V26.5976ZM29.106 56.2626C30.9861 62.9062 33.9898 69.1839 37.9888 74.8271L42.8404 66.483C43.0329 66.1518 43.1343 65.776 43.1343 65.3935C43.1343 65.011 43.0329 64.6352 42.8404 64.3039L38.7998 57.3521C38.6074 57.0211 38.3306 56.7461 37.9974 56.5549C37.6642 56.3636 37.2862 56.2628 36.9013 56.2626H29.106ZM74.9404 56.2626C73.0618 62.9059 70.0596 69.1835 66.0623 74.8271L61.2107 66.483C61.0182 66.1518 60.9168 65.776 60.9168 65.3935C60.9168 65.011 61.0182 64.6352 61.2107 64.3039L65.256 57.3521C65.4484 57.0211 65.7252 56.7461 66.0584 56.5549C66.3916 56.3636 66.7696 56.2628 67.1545 56.2626H74.9451H74.9404ZM47.9076 67.2094C47.522 67.2088 47.143 67.3093 46.8089 67.5006C46.4747 67.6918 46.1973 67.9672 46.0045 68.299L40.3795 77.984C43.4088 81.7229 46.8683 85.0968 50.6873 88.0368C51.0724 88.331 51.5445 88.4904 52.0302 88.4904C52.516 88.4904 52.9881 88.331 53.3732 88.0368C57.1908 85.0951 60.6487 81.7196 63.6763 77.9793L58.0513 68.299C57.8589 67.9679 57.5822 67.693 57.249 67.5017C56.9158 67.3105 56.5377 67.2097 56.1529 67.2094H47.9029H47.9076Z" fill="white"/>
</svg>
