<svg width="269" height="66" viewBox="0 0 269 66" fill="none" xmlns="http://www.w3.org/2000/svg">
<g clip-path="url(#clip0_89_542)">
<path d="M62.6847 22.8967C61.4419 22.4402 60.0738 22.928 59.0365 23.4891C58.3507 24.0257 57.2123 24.7854 55.6353 25.2872C55.6353 25.2872 53.9748 25.7995 52.2412 25.7995C45.9159 25.7995 40.7881 20.6664 40.7881 14.3345C40.7881 12.5607 41.2998 10.9368 41.2998 10.9368C41.829 9.36167 42.6436 8.25698 43.1832 7.62623C43.7645 6.54594 44.2205 5.19732 43.775 3.97415C42.567 0.656612 35.5733 0.625249 33.3453 0.614794C27.953 0.590401 18.9158 2.0819 11.3269 9.06894C10.0911 10.205 0.357674 19.4537 0.695349 33.2953C1.10613 50.1583 16.2597 65.6379 33.3419 65.9759C47.9384 66.2651 57.4316 55.3716 58.4551 54.1589C58.9459 53.5769 66.0162 44.959 65.9884 33.2953C65.9849 31.0407 65.9675 24.1059 62.6812 22.8967H62.6847ZM51.4022 43.8787C50.1246 43.8787 48.9828 43.3142 48.1995 42.4255L36.6176 46.2797C36.6281 46.4644 36.6385 46.6526 36.6385 46.8408C36.6385 51.622 32.7675 55.4971 27.9913 55.4971C23.2151 55.4971 19.344 51.622 19.344 46.8408C19.344 43.8473 20.8618 41.2093 23.1698 39.6551L18.9124 30.1764C18.6513 30.2078 18.3902 30.2287 18.1187 30.2287C14.5713 30.2287 11.6959 27.3503 11.6959 23.7992C11.6959 20.2482 14.5713 17.3698 18.1187 17.3698C21.666 17.3698 24.5414 20.2482 24.5414 23.7992C24.5414 26.1097 23.3195 28.1309 21.4919 29.2634L25.645 38.5086C26.3899 38.2995 27.1767 38.1845 27.9913 38.1845C31.6256 38.1845 34.7308 40.4287 36.0119 43.6069L47.1482 39.8991C47.1413 39.8015 47.1343 39.7004 47.1343 39.5994C47.1343 37.2401 49.0455 35.3235 51.4057 35.3235C53.7659 35.3235 55.6771 37.2367 55.6771 39.5994C55.6771 41.9621 53.7659 43.8752 51.4057 43.8752L51.4022 43.8787Z" fill="white"/>
<path d="M79.3074 39.6167C79.3074 31.6225 85.3507 25.4126 93.4967 25.4126C98.8368 25.4126 103.373 28.2214 105.42 32.4868L101.482 34.7554C100.132 31.8943 97.1136 30.0021 93.4967 30.0021C88.1008 30.0021 84 34.1595 84 39.6167C84 45.0739 88.1008 49.179 93.4967 49.179C97.1658 49.179 100.135 47.2867 101.646 44.478L105.639 46.8024C103.373 51.0155 98.7881 53.8243 93.4967 53.8243C85.3507 53.8243 79.3074 47.6108 79.3074 39.6202V39.6167Z" fill="white"/>
<path d="M108.389 39.6167C108.389 31.6225 114.701 25.4126 122.578 25.4126C130.456 25.4126 136.823 31.6225 136.823 39.6167C136.823 47.6108 130.456 53.8208 122.578 53.8208C114.701 53.8208 108.389 47.6073 108.389 39.6167ZM132.131 39.6167C132.131 34.163 127.974 30.0021 122.578 30.0021C117.183 30.0021 113.082 34.1595 113.082 39.6167C113.082 45.0739 117.235 49.2313 122.578 49.2313C127.922 49.2313 132.131 45.0739 132.131 39.6167Z" fill="white"/>
<path d="M140.872 39.6167C140.872 31.6225 147.183 25.4126 155.061 25.4126C162.939 25.4126 169.306 31.6225 169.306 39.6167C169.306 47.6108 162.939 53.8208 155.061 53.8208C147.183 53.8208 140.872 47.6073 140.872 39.6167ZM164.614 39.6167C164.614 34.163 160.457 30.0021 155.061 30.0021C149.666 30.0021 145.565 34.1595 145.565 39.6167C145.565 45.0739 149.718 49.2313 155.061 49.2313C160.405 49.2313 164.614 45.0739 164.614 39.6167Z" fill="white"/>
<path d="M191.861 53.1204L179.558 40.3207V53.1204H174.862V15.3137H179.558V38.0521L191.213 26.1131H197.257L184.362 39.1847L197.688 53.1204H191.861Z" fill="white"/>
<path d="M201.25 18.0665C201.25 16.3381 202.653 14.8779 204.431 14.8779C206.21 14.8779 207.561 16.3381 207.561 18.0665C207.561 19.795 206.158 21.1994 204.431 21.1994C202.705 21.1994 201.25 19.795 201.25 18.0665ZM202.057 26.113H206.753V53.1202H202.057V26.113Z" fill="white"/>
<path d="M226.99 49.395C230.714 49.395 233.412 47.6665 234.76 45.4537L238.752 47.7223C236.378 51.3953 232.277 53.8242 226.882 53.8242C218.193 53.8242 212.421 47.7223 212.421 39.6201C212.421 31.5179 218.14 25.416 226.558 25.416C234.975 25.416 239.992 32.1138 239.992 39.6759C239.992 40.3763 239.936 41.0802 239.828 41.7807H217.221C218.14 46.642 221.97 49.395 226.986 49.395H226.99ZM217.225 37.6756H235.247C234.439 32.3299 230.606 29.8452 226.561 29.8452C221.489 29.8452 217.98 32.9781 217.225 37.6756Z" fill="white"/>
<path d="M268.698 41.9411C268.698 49.6111 262.546 53.8243 255.748 53.8243C250.192 53.8243 245.28 51.2316 243.337 46.1542L247.546 43.6696C248.677 47.1822 251.647 48.9107 255.748 48.9107C260.28 48.9107 263.681 46.426 263.681 41.9411C263.681 37.4561 260.284 34.9192 255.748 34.9192H254.453L252.458 31.8421L261.199 20.0147H244.416V15.3171H267.079V19.7463L258.877 30.8176C264.329 31.8456 268.698 35.6789 268.698 41.9446V41.9411Z" fill="white"/>
</g>
<defs>
<clipPath id="clip0_89_542">
<rect width="268.009" height="65.3681" fill="white" transform="translate(0.688354 0.614746)"/>
</clipPath>
</defs>
</svg>
