<svg width="500" height="516" viewBox="0 0 500 516" fill="none" xmlns="http://www.w3.org/2000/svg">
<path d="M250.49 390.055C252.657 390.055 254.787 390.621 256.663 391.705L296.055 414.449C297.933 415.534 299.492 417.094 300.576 418.973C301.659 420.851 302.229 422.982 302.228 425.15V471.552C302.228 475.965 299.879 480.041 296.055 482.248L256.657 504.997C254.78 506.081 252.65 506.652 250.481 506.652C248.313 506.652 246.183 506.081 244.306 504.997L204.902 482.248C203.024 481.164 201.465 479.605 200.381 477.727C199.296 475.85 198.725 473.72 198.724 471.552V425.15C198.724 420.738 201.078 416.661 204.902 414.449L244.295 391.705C246.176 390.621 248.311 390.049 250.473 390.049H250.484L250.49 390.055ZM250.479 381.466C246.805 381.469 243.196 382.436 240.014 384.272L200.611 407.011C197.431 408.853 194.791 411.497 192.954 414.68C191.116 417.862 190.147 421.47 190.141 425.145V471.547C190.147 475.221 191.116 478.83 192.954 482.012C194.791 485.194 197.431 487.838 200.611 489.681L240.003 512.425C246.484 516.166 254.467 516.166 260.943 512.425L300.341 489.681C303.521 487.838 306.161 485.194 307.998 482.012C309.835 478.83 310.805 475.221 310.811 471.547V425.145C310.805 421.47 309.835 417.862 307.998 414.68C306.161 411.497 303.521 408.853 300.341 407.011L260.949 384.261C257.763 382.423 254.151 381.456 250.473 381.455L250.479 381.466Z" fill="#8B63FF" fill-opacity="0.43"/>
<path d="M245.654 455.636C245.201 455.636 244.756 455.518 244.364 455.292C243.972 455.066 243.646 454.74 243.42 454.348L238.683 446.134C238.457 445.743 238.338 445.299 238.338 444.847C238.338 444.395 238.457 443.951 238.683 443.559L243.42 435.345C243.646 434.953 243.972 434.628 244.364 434.402C244.756 434.176 245.201 434.057 245.654 434.058H255.326C255.777 434.059 256.22 434.179 256.611 434.404C257.002 434.63 257.327 434.955 257.554 435.345L262.296 443.559C262.522 443.951 262.641 444.395 262.641 444.847C262.641 445.299 262.522 445.743 262.296 446.134L257.554 454.348C257.328 454.739 257.003 455.064 256.612 455.29C256.221 455.516 255.777 455.635 255.326 455.636H245.654V455.636ZM232.73 442.701C233.182 442.7 233.627 442.581 234.019 442.355C234.411 442.13 234.736 441.805 234.964 441.413L239.701 433.199C239.927 432.808 240.046 432.364 240.046 431.912C240.046 431.46 239.927 431.016 239.701 430.625L233.792 420.386L222.255 426.68C221.841 426.906 221.498 427.242 221.262 427.651C221.026 428.059 220.907 428.525 220.918 428.996C221.011 433.606 221.55 438.195 222.519 442.701H232.73V442.701ZM268.244 442.701C267.792 442.701 267.348 442.581 266.957 442.356C266.566 442.13 266.241 441.805 266.016 441.413L261.273 433.199C261.047 432.808 260.928 432.364 260.928 431.912C260.928 431.46 261.047 431.016 261.273 430.625L267.182 420.386L278.714 426.68C279.127 426.905 279.471 427.24 279.708 427.647C279.945 428.055 280.065 428.519 280.056 428.991C279.962 433.601 279.428 438.192 278.461 442.701H268.244V442.701ZM251.722 411.941C251.344 411.734 250.92 411.626 250.49 411.626C250.059 411.626 249.635 411.734 249.257 411.941L237.56 418.323L243.425 428.479C243.651 428.87 243.976 429.195 244.367 429.421C244.758 429.647 245.202 429.766 245.654 429.766H255.326C255.777 429.767 256.221 429.648 256.613 429.422C257.004 429.196 257.328 428.87 257.554 428.479L263.419 418.328L251.722 411.946V411.941ZM223.586 446.992C225.793 454.842 229.318 462.26 234.012 468.928L239.706 459.069C239.932 458.677 240.051 458.233 240.051 457.781C240.051 457.329 239.932 456.885 239.706 456.494L234.964 448.28C234.738 447.889 234.413 447.564 234.022 447.338C233.631 447.112 233.187 446.993 232.735 446.992H223.586ZM277.382 446.992C275.177 454.842 271.654 462.259 266.962 468.928L261.268 459.069C261.042 458.677 260.923 458.233 260.923 457.781C260.923 457.329 261.042 456.885 261.268 456.494L266.016 448.28C266.241 447.889 266.566 447.564 266.957 447.338C267.348 447.112 267.792 446.993 268.244 446.992H277.388H277.382ZM245.654 459.927C245.201 459.926 244.756 460.045 244.364 460.271C243.972 460.497 243.646 460.822 243.42 461.214L236.818 472.658C240.373 477.076 244.434 481.062 248.916 484.536C249.368 484.884 249.922 485.072 250.492 485.072C251.062 485.072 251.617 484.884 252.069 484.536C256.549 481.06 260.608 477.072 264.161 472.652L257.559 461.214C257.333 460.823 257.009 460.498 256.618 460.272C256.226 460.046 255.783 459.927 255.331 459.927H245.648H245.654Z" fill="#8B63FF" fill-opacity="0.43"/>
<path d="M62.6962 312.59C64.8639 312.59 66.9931 313.157 68.8692 314.24L108.262 336.985C110.14 338.069 111.699 339.629 112.782 341.508C113.866 343.386 114.436 345.517 114.435 347.686V394.087C114.435 398.5 112.086 402.577 108.262 404.783L68.8637 427.533C66.9861 428.617 64.8561 429.187 62.688 429.187C60.5198 429.187 58.3899 428.617 56.5122 427.533L17.1086 404.783C15.231 403.699 13.6717 402.14 12.5872 400.262C11.5027 398.385 10.9312 396.256 10.9302 394.087V347.686C10.9302 343.273 13.2849 339.196 17.1086 336.985L56.5013 314.24C58.3829 313.157 60.5175 312.584 62.6797 312.584H62.6907L62.6962 312.59ZM62.6852 304.002C59.0115 304.004 55.4029 304.971 52.2209 306.807L12.8173 329.546C9.63784 331.388 6.99756 334.033 5.16027 337.215C3.32299 340.397 2.35306 344.006 2.34741 347.68V394.082C2.35306 397.756 3.32299 401.365 5.16027 404.547C6.99756 407.729 9.63784 410.374 12.8173 412.216L52.2099 434.96C58.6909 438.701 66.674 438.701 73.1496 434.96L112.548 412.216C115.727 410.374 118.367 407.729 120.205 404.547C122.042 401.365 123.012 397.756 123.018 394.082V347.68C123.012 344.006 122.042 340.397 120.205 337.215C118.367 334.033 115.727 331.388 112.548 329.546L73.1551 306.796C69.9699 304.959 66.3572 303.991 62.6797 303.991L62.6852 304.002Z" fill="#8B63FF" fill-opacity="0.43"/>
<path d="M57.8596 378.171C57.407 378.172 56.9622 378.053 56.57 377.827C56.1779 377.601 55.8522 377.276 55.6259 376.884L50.8889 368.669C50.6629 368.278 50.5439 367.834 50.5439 367.382C50.5439 366.93 50.6629 366.486 50.8889 366.095L55.6259 357.88C55.8522 357.488 56.1779 357.163 56.57 356.937C56.9622 356.711 57.407 356.592 57.8596 356.593H67.5317C67.9832 356.594 68.4264 356.714 68.8174 356.94C69.2083 357.166 69.5332 357.49 69.7599 357.88L74.5025 366.095C74.7284 366.486 74.8474 366.93 74.8474 367.382C74.8474 367.834 74.7284 368.278 74.5025 368.669L69.7599 376.884C69.5341 377.275 69.2093 377.6 68.8182 377.826C68.4271 378.052 67.9834 378.171 67.5317 378.171H57.8596V378.171ZM44.936 365.236C45.3884 365.236 45.8328 365.117 46.2247 364.891C46.6167 364.665 46.9425 364.34 47.1697 363.949L51.9067 355.735C52.1327 355.343 52.2517 354.899 52.2517 354.447C52.2517 353.995 52.1327 353.551 51.9067 353.16L45.9978 342.921L34.4606 349.215C34.047 349.442 33.7036 349.778 33.4679 350.186C33.2321 350.595 33.1131 351.06 33.1237 351.531C33.2172 356.142 33.7564 360.73 34.7247 365.236H44.936V365.236ZM80.4499 365.236C79.9982 365.236 79.5545 365.117 79.1634 364.891C78.7723 364.665 78.4475 364.34 78.2216 363.949L73.4791 355.735C73.2531 355.343 73.1342 354.899 73.1342 354.447C73.1342 353.995 73.2531 353.551 73.4791 353.16L79.388 342.921L90.9197 349.215C91.3335 349.441 91.6775 349.775 91.9142 350.183C92.1509 350.59 92.2712 351.055 92.2621 351.526C92.1682 356.136 91.634 360.727 90.6666 365.236H80.4499V365.236ZM63.9281 334.476C63.55 334.27 63.1263 334.162 62.6957 334.162C62.2651 334.162 61.8413 334.27 61.4633 334.476L49.7665 340.858L55.6314 351.014C55.8573 351.405 56.182 351.73 56.5731 351.956C56.9643 352.182 57.4079 352.301 57.8596 352.302H67.5317C67.9835 352.302 68.4274 352.183 68.8186 351.957C69.2098 351.731 69.5345 351.406 69.7599 351.014L75.6248 340.864L63.9281 334.481V334.476ZM35.7921 369.528C37.9987 377.378 41.5242 384.795 46.2179 391.463L51.9122 381.604C52.1382 381.213 52.2572 380.769 52.2572 380.317C52.2572 379.865 52.1382 379.421 51.9122 379.029L47.1697 370.815C46.9439 370.424 46.6191 370.099 46.228 369.873C45.8369 369.647 45.3932 369.528 44.9415 369.528H35.7921ZM89.5883 369.528C87.3834 377.377 83.8597 384.795 79.1679 391.463L73.4736 381.604C73.2476 381.213 73.1287 380.769 73.1287 380.317C73.1287 379.865 73.2476 379.421 73.4736 379.029L78.2216 370.815C78.4475 370.424 78.7723 370.099 79.1634 369.873C79.5545 369.647 79.9982 369.528 80.4499 369.528H89.5938H89.5883ZM57.8596 382.462C57.407 382.462 56.9622 382.58 56.57 382.806C56.1779 383.032 55.8522 383.358 55.6259 383.75L49.0238 395.193C52.5794 399.611 56.6398 403.598 61.1222 407.072C61.5741 407.419 62.1283 407.608 62.6984 407.608C63.2686 407.608 63.8227 407.419 64.2747 407.072C68.7555 403.596 72.814 399.607 76.3675 395.188L69.7654 383.75C69.5396 383.359 69.2148 383.034 68.8237 382.808C68.4326 382.582 67.9889 382.463 67.5372 382.462H57.8541H57.8596Z" fill="#8B63FF" fill-opacity="0.43"/>
<path d="M62.6962 111.886C64.8639 111.886 66.9931 112.452 68.8692 113.536L108.262 136.28C110.14 137.365 111.699 138.925 112.782 140.804C113.866 142.682 114.436 144.813 114.435 146.981V193.383C114.435 197.796 112.086 201.872 108.262 204.079L68.8637 226.828C66.9861 227.912 64.8561 228.483 62.688 228.483C60.5198 228.483 58.3899 227.912 56.5122 226.828L17.1086 204.079C15.231 202.995 13.6717 201.436 12.5872 199.558C11.5027 197.681 10.9312 195.551 10.9302 193.383V146.981C10.9302 142.569 13.2849 138.492 17.1086 136.28L56.5013 113.536C58.3829 112.452 60.5175 111.88 62.6797 111.88H62.6907L62.6962 111.886ZM62.6852 103.297C59.0115 103.3 55.4029 104.267 52.2209 106.103L12.8173 128.842C9.63784 130.684 6.99756 133.328 5.16027 136.511C3.32299 139.693 2.35306 143.301 2.34741 146.976V193.378C2.35306 197.052 3.32299 200.661 5.16027 203.843C6.99756 207.025 9.63784 209.669 12.8173 211.511L52.2099 234.256C58.6909 237.997 66.674 237.997 73.1496 234.256L112.548 211.511C115.727 209.669 118.367 207.025 120.205 203.843C122.042 200.661 123.012 197.052 123.018 193.378V146.976C123.012 143.301 122.042 139.693 120.205 136.511C118.367 133.328 115.727 130.684 112.548 128.842L73.1551 106.092C69.9699 104.254 66.3572 103.287 62.6797 103.286L62.6852 103.297Z" fill="#8B63FF" fill-opacity="0.43"/>
<path d="M57.8596 177.466C57.407 177.467 56.9622 177.348 56.57 177.122C56.1779 176.896 55.8522 176.571 55.6259 176.179L50.8889 167.965C50.6629 167.573 50.5439 167.129 50.5439 166.677C50.5439 166.226 50.6629 165.781 50.8889 165.39L55.6259 157.176C55.8522 156.784 56.1779 156.459 56.57 156.233C56.9622 156.007 57.407 155.888 57.8596 155.889H67.5317C67.9832 155.89 68.4264 156.01 68.8174 156.235C69.2083 156.461 69.5332 156.786 69.7599 157.176L74.5025 165.39C74.7284 165.781 74.8474 166.226 74.8474 166.677C74.8474 167.129 74.7284 167.573 74.5025 167.965L69.7599 176.179C69.5341 176.57 69.2093 176.895 68.8182 177.121C68.4271 177.347 67.9834 177.466 67.5317 177.466H57.8596V177.466ZM44.936 164.532C45.3884 164.531 45.8328 164.412 46.2247 164.186C46.6167 163.96 46.9425 163.636 47.1697 163.244L51.9067 155.03C52.1327 154.639 52.2517 154.195 52.2517 153.743C52.2517 153.291 52.1327 152.847 51.9067 152.455L45.9978 142.217L34.4606 148.511C34.047 148.737 33.7036 149.073 33.4679 149.482C33.2321 149.89 33.1131 150.355 33.1237 150.827C33.2172 155.437 33.7564 160.026 34.7247 164.532H44.936V164.532ZM80.4499 164.532C79.9982 164.532 79.5545 164.412 79.1634 164.186C78.7723 163.96 78.4475 163.636 78.2216 163.244L73.4791 155.03C73.2531 154.639 73.1342 154.195 73.1342 153.743C73.1342 153.291 73.2531 152.847 73.4791 152.455L79.388 142.217L90.9197 148.511C91.3335 148.736 91.6775 149.071 91.9142 149.478C92.1509 149.886 92.2712 150.35 92.2621 150.821C92.1682 155.432 91.634 160.023 90.6666 164.532H80.4499V164.532ZM63.9281 133.771C63.55 133.565 63.1263 133.457 62.6957 133.457C62.2651 133.457 61.8413 133.565 61.4633 133.771L49.7665 140.153L55.6314 150.31C55.8573 150.701 56.182 151.026 56.5731 151.252C56.9643 151.478 57.4079 151.597 57.8596 151.597H67.5317C67.9835 151.597 68.4274 151.479 68.8186 151.253C69.2098 151.026 69.5345 150.701 69.7599 150.31L75.6248 140.159L63.9281 133.777V133.771ZM35.7921 168.823C37.9987 176.673 41.5242 184.091 46.2179 190.759L51.9122 180.9C52.1382 180.508 52.2572 180.064 52.2572 179.612C52.2572 179.16 52.1382 178.716 51.9122 178.325L47.1697 170.111C46.9439 169.719 46.6191 169.395 46.228 169.169C45.8369 168.943 45.3932 168.823 44.9415 168.823H35.7921ZM89.5883 168.823C87.3834 176.673 83.8597 184.09 79.1679 190.759L73.4736 180.9C73.2476 180.508 73.1287 180.064 73.1287 179.612C73.1287 179.16 73.2476 178.716 73.4736 178.325L78.2216 170.111C78.4475 169.719 78.7723 169.395 79.1634 169.169C79.5545 168.943 79.9982 168.823 80.4499 168.823H89.5938H89.5883ZM57.8596 181.758C57.407 181.757 56.9622 181.876 56.57 182.102C56.1779 182.328 55.8522 182.653 55.6259 183.045L49.0238 194.489C52.5794 198.907 56.6398 202.893 61.1222 206.367C61.5741 206.715 62.1283 206.903 62.6984 206.903C63.2686 206.903 63.8227 206.715 64.2747 206.367C68.7555 202.891 72.814 198.903 76.3675 194.483L69.7654 183.045C69.5396 182.654 69.2148 182.329 68.8237 182.103C68.4326 181.877 67.9889 181.758 67.5372 181.758H57.8541H57.8596Z" fill="#8B63FF" fill-opacity="0.43"/>
<path d="M250.49 8.59925C252.657 8.59925 254.787 9.16593 256.663 10.2498L296.055 32.9941C297.933 34.0788 299.492 35.6389 300.576 37.5173C301.659 39.3958 302.229 41.5264 302.228 43.695V90.0968C302.228 94.5092 299.879 98.586 296.055 100.792L256.657 123.542C254.78 124.626 252.65 125.197 250.481 125.197C248.313 125.197 246.183 124.626 244.306 123.542L204.902 100.792C203.024 99.7082 201.465 98.1492 200.381 96.2719C199.296 94.3945 198.725 92.2649 198.724 90.0968V43.695C198.724 39.2826 201.078 35.2058 204.902 32.9941L244.295 10.2498C246.176 9.16593 248.311 8.59375 250.473 8.59375H250.484L250.49 8.59925ZM250.479 0.0110027C246.805 0.0131561 243.196 0.980773 240.014 2.8169L200.611 25.5557C197.431 27.3977 194.791 30.042 192.954 33.2242C191.116 36.4063 190.147 40.015 190.141 43.6895V90.0913C190.147 93.7658 191.116 97.3745 192.954 100.557C194.791 103.739 197.431 106.383 200.611 108.225L240.003 130.969C246.484 134.711 254.467 134.711 260.943 130.969L300.341 108.225C303.521 106.383 306.161 103.739 307.998 100.557C309.835 97.3745 310.805 93.7658 310.811 90.0913V43.6895C310.805 40.015 309.835 36.4063 307.998 33.2242C306.161 30.042 303.521 27.3977 300.341 25.5557L260.949 2.8059C257.763 0.967907 254.151 0.000224065 250.473 0L250.479 0.0110027Z" fill="#8B63FF" fill-opacity="0.43"/>
<path d="M245.654 74.1802C245.201 74.1809 244.756 74.0622 244.364 73.8362C243.972 73.6102 243.646 73.2848 243.42 72.8928L238.683 64.6786C238.457 64.2872 238.338 63.8432 238.338 63.3912C238.338 62.9393 238.457 62.4952 238.683 62.1038L243.42 53.8897C243.646 53.4977 243.972 53.1723 244.364 52.9463C244.756 52.7203 245.201 52.6016 245.654 52.6023H255.326C255.777 52.6037 256.22 52.7233 256.611 52.9491C257.002 53.175 257.327 53.4993 257.554 53.8897L262.296 62.1038C262.522 62.4952 262.641 62.9393 262.641 63.3912C262.641 63.8432 262.522 64.2872 262.296 64.6786L257.554 72.8928C257.328 73.284 257.003 73.6088 256.612 73.8348C256.221 74.0608 255.777 74.1799 255.326 74.1802H245.654V74.1802ZM232.73 61.2455C233.182 61.2451 233.627 61.126 234.019 60.9001C234.411 60.6742 234.736 60.3494 234.964 59.9581L239.701 51.744C239.927 51.3526 240.046 50.9086 240.046 50.4566C240.046 50.0046 239.927 49.5606 239.701 49.1692L233.792 38.9304L222.255 45.2244C221.841 45.451 221.498 45.7869 221.262 46.1953C221.026 46.6038 220.907 47.0692 220.918 47.5407C221.011 52.1511 221.55 56.7396 222.519 61.2455H232.73V61.2455ZM268.244 61.2455C267.792 61.2453 267.348 61.1261 266.957 60.9002C266.566 60.6742 266.241 60.3493 266.016 59.9581L261.273 51.744C261.047 51.3526 260.928 50.9086 260.928 50.4566C260.928 50.0046 261.047 49.5606 261.273 49.1692L267.182 38.9304L278.714 45.2244C279.127 45.4499 279.471 45.7845 279.708 46.192C279.945 46.5994 280.065 47.064 280.056 47.5352C279.962 52.1457 279.428 56.7367 278.461 61.2455H268.244V61.2455ZM251.722 30.4852C251.344 30.2791 250.92 30.1711 250.49 30.1711C250.059 30.1711 249.635 30.2791 249.257 30.4852L237.56 36.8672L243.425 47.0235C243.651 47.4147 243.976 47.7396 244.367 47.9655C244.758 48.1915 245.202 48.3106 245.654 48.3109H255.326C255.777 48.3112 256.221 48.1923 256.613 47.9663C257.004 47.7402 257.328 47.415 257.554 47.0235L263.419 36.8727L251.722 30.4907V30.4852ZM223.586 65.5369C225.793 73.3869 229.318 80.8045 234.012 87.4724L239.706 77.6133C239.932 77.2219 240.051 76.7778 240.051 76.3259C240.051 75.8739 239.932 75.4299 239.706 75.0385L234.964 66.8243C234.738 66.4332 234.413 66.1083 234.022 65.8823C233.631 65.6563 233.187 65.5372 232.735 65.5369H223.586ZM277.382 65.5369C275.177 73.3866 271.654 80.8041 266.962 87.4724L261.268 77.6133C261.042 77.2219 260.923 76.7778 260.923 76.3259C260.923 75.8739 261.042 75.4299 261.268 75.0385L266.016 66.8243C266.241 66.4332 266.566 66.1083 266.957 65.8823C267.348 65.6563 267.792 65.5372 268.244 65.5369H277.388H277.382ZM245.654 78.4716C245.201 78.4709 244.756 78.5895 244.364 78.8156C243.972 79.0416 243.646 79.367 243.42 79.759L236.818 91.2026C240.373 95.6205 244.434 99.6071 248.916 103.081C249.368 103.428 249.922 103.617 250.492 103.617C251.062 103.617 251.617 103.428 252.069 103.081C256.549 99.605 260.608 95.6166 264.161 91.1971L257.559 79.759C257.333 79.3678 257.009 79.0429 256.618 78.8169C256.226 78.591 255.783 78.4718 255.331 78.4716H245.648H245.654Z" fill="#8B63FF" fill-opacity="0.43"/>
<path d="M435.936 111.886C438.103 111.886 440.233 112.452 442.109 113.536L481.501 136.28C483.379 137.365 484.938 138.925 486.022 140.804C487.105 142.682 487.675 144.813 487.674 146.981V193.383C487.674 197.796 485.325 201.872 481.501 204.079L442.103 226.828C440.226 227.912 438.096 228.483 435.927 228.483C433.759 228.483 431.629 227.912 429.752 226.828L390.348 204.079C388.471 202.995 386.911 201.436 385.827 199.558C384.742 197.681 384.171 195.551 384.17 193.383V146.981C384.17 142.569 386.524 138.492 390.348 136.28L429.741 113.536C431.622 112.452 433.757 111.88 435.919 111.88H435.93L435.936 111.886ZM435.925 103.297C432.251 103.3 428.642 104.267 425.46 106.103L386.057 128.842C382.877 130.684 380.237 133.328 378.4 136.511C376.562 139.693 375.593 143.301 375.587 146.976V193.378C375.593 197.052 376.562 200.661 378.4 203.843C380.237 207.025 382.877 209.669 386.057 211.511L425.449 234.256C431.93 237.997 439.914 237.997 446.389 234.256L485.787 211.511C488.967 209.669 491.607 207.025 493.444 203.843C495.281 200.661 496.251 197.052 496.257 193.378V146.976C496.251 143.301 495.281 139.693 493.444 136.511C491.607 133.328 488.967 130.684 485.787 128.842L446.395 106.092C443.209 104.254 439.597 103.287 435.919 103.286L435.925 103.297Z" fill="#8B63FF" fill-opacity="0.43"/>
<path d="M431.1 177.466C430.647 177.467 430.202 177.348 429.81 177.122C429.418 176.896 429.092 176.571 428.866 176.179L424.129 167.965C423.903 167.573 423.784 167.129 423.784 166.677C423.784 166.226 423.903 165.781 424.129 165.39L428.866 157.176C429.092 156.784 429.418 156.459 429.81 156.233C430.202 156.007 430.647 155.888 431.1 155.889H440.772C441.223 155.89 441.666 156.01 442.057 156.235C442.448 156.461 442.773 156.786 443 157.176L447.742 165.39C447.968 165.781 448.087 166.226 448.087 166.677C448.087 167.129 447.968 167.573 447.742 167.965L443 176.179C442.774 176.57 442.449 176.895 442.058 177.121C441.667 177.347 441.223 177.466 440.772 177.466H431.1V177.466ZM418.176 164.532C418.628 164.531 419.073 164.412 419.465 164.186C419.857 163.96 420.183 163.636 420.41 163.244L425.147 155.03C425.373 154.639 425.492 154.195 425.492 153.743C425.492 153.291 425.373 152.847 425.147 152.455L419.238 142.217L407.701 148.511C407.287 148.737 406.944 149.073 406.708 149.482C406.472 149.89 406.353 150.355 406.364 150.827C406.457 155.437 406.996 160.026 407.965 164.532H418.176V164.532ZM453.69 164.532C453.238 164.532 452.794 164.412 452.403 164.186C452.012 163.96 451.687 163.636 451.462 163.244L446.719 155.03C446.493 154.639 446.374 154.195 446.374 153.743C446.374 153.291 446.493 152.847 446.719 152.455L452.628 142.217L464.16 148.511C464.573 148.736 464.917 149.071 465.154 149.478C465.391 149.886 465.511 150.35 465.502 150.821C465.408 155.432 464.874 160.023 463.907 164.532H453.69V164.532ZM437.168 133.771C436.79 133.565 436.366 133.457 435.936 133.457C435.505 133.457 435.081 133.565 434.703 133.771L423.007 140.153L428.871 150.31C429.097 150.701 429.422 151.026 429.813 151.252C430.204 151.478 430.648 151.597 431.1 151.597H440.772C441.224 151.597 441.667 151.479 442.059 151.253C442.45 151.026 442.775 150.701 443 150.31L448.865 140.159L437.168 133.777V133.771ZM409.032 168.823C411.239 176.673 414.764 184.091 419.458 190.759L425.152 180.9C425.378 180.508 425.497 180.064 425.497 179.612C425.497 179.16 425.378 178.716 425.152 178.325L420.41 170.111C420.184 169.719 419.859 169.395 419.468 169.169C419.077 168.943 418.633 168.823 418.181 168.823H409.032ZM462.828 168.823C460.623 176.673 457.1 184.09 452.408 190.759L446.714 180.9C446.488 180.508 446.369 180.064 446.369 179.612C446.369 179.16 446.488 178.716 446.714 178.325L451.462 170.111C451.687 169.719 452.012 169.395 452.403 169.169C452.794 168.943 453.238 168.823 453.69 168.823H462.834H462.828ZM431.1 181.758C430.647 181.757 430.202 181.876 429.81 182.102C429.418 182.328 429.092 182.653 428.866 183.045L422.264 194.489C425.819 198.907 429.88 202.893 434.362 206.367C434.814 206.715 435.368 206.903 435.938 206.903C436.509 206.903 437.063 206.715 437.515 206.367C441.995 202.891 446.054 198.903 449.608 194.483L443.005 183.045C442.78 182.654 442.455 182.329 442.064 182.103C441.673 181.877 441.229 181.758 440.777 181.758H431.094H431.1Z" fill="#8B63FF" fill-opacity="0.43"/>
<path d="M435.936 311.416C438.103 311.416 440.233 311.983 442.109 313.067L481.501 335.811C483.379 336.896 484.938 338.456 486.022 340.334C487.105 342.213 487.675 344.343 487.674 346.512V392.914C487.674 397.326 485.325 401.403 481.501 403.609L442.103 426.359C440.226 427.443 438.096 428.014 435.927 428.014C433.759 428.014 431.629 427.443 429.752 426.359L390.348 403.609C388.471 402.525 386.911 400.966 385.827 399.089C384.742 397.211 384.171 395.082 384.17 392.914V346.512C384.17 342.099 386.524 338.023 390.348 335.811L429.741 313.067C431.622 311.983 433.757 311.411 435.919 311.411H435.93L435.936 311.416ZM435.925 302.828C432.251 302.83 428.642 303.798 425.46 305.634L386.057 328.373C382.877 330.215 380.237 332.859 378.4 336.041C376.562 339.223 375.593 342.832 375.587 346.506V392.908C375.593 396.583 376.562 400.191 378.4 403.374C380.237 406.556 382.877 409.2 386.057 411.042L425.449 433.786C431.93 437.527 439.914 437.527 446.389 433.786L485.787 411.042C488.967 409.2 491.607 406.556 493.444 403.374C495.281 400.191 496.251 396.583 496.257 392.908V346.506C496.251 342.832 495.281 339.223 493.444 336.041C491.607 332.859 488.967 330.215 485.787 328.373L446.395 305.623C443.209 303.785 439.597 302.817 435.919 302.817L435.925 302.828Z" fill="#8B63FF" fill-opacity="0.43"/>
<path d="M431.1 376.997C430.647 376.998 430.202 376.879 429.81 376.653C429.418 376.427 429.092 376.102 428.866 375.71L424.129 367.496C423.903 367.104 423.784 366.66 423.784 366.208C423.784 365.756 423.903 365.312 424.129 364.921L428.866 356.707C429.092 356.315 429.418 355.989 429.81 355.763C430.202 355.537 430.647 355.418 431.1 355.419H440.772C441.223 355.421 441.666 355.54 442.057 355.766C442.448 355.992 442.773 356.316 443 356.707L447.742 364.921C447.968 365.312 448.087 365.756 448.087 366.208C448.087 366.66 447.968 367.104 447.742 367.496L443 375.71C442.774 376.101 442.449 376.426 442.058 376.652C441.667 376.878 441.223 376.997 440.772 376.997H431.1V376.997ZM418.176 364.062C418.628 364.062 419.073 363.943 419.465 363.717C419.857 363.491 420.183 363.166 420.41 362.775L425.147 354.561C425.373 354.169 425.492 353.725 425.492 353.273C425.492 352.821 425.373 352.377 425.147 351.986L419.238 341.747L407.701 348.041C407.287 348.268 406.944 348.604 406.708 349.012C406.472 349.421 406.353 349.886 406.364 350.358C406.457 354.968 406.996 359.556 407.965 364.062H418.176V364.062ZM453.69 364.062C453.238 364.062 452.794 363.943 452.403 363.717C452.012 363.491 451.687 363.166 451.462 362.775L446.719 354.561C446.493 354.169 446.374 353.725 446.374 353.273C446.374 352.821 446.493 352.377 446.719 351.986L452.628 341.747L464.16 348.041C464.573 348.267 464.917 348.601 465.154 349.009C465.391 349.416 465.511 349.881 465.502 350.352C465.408 354.963 464.874 359.554 463.907 364.062H453.69V364.062ZM437.168 333.302C436.79 333.096 436.366 332.988 435.936 332.988C435.505 332.988 435.081 333.096 434.703 333.302L423.007 339.684L428.871 349.84C429.097 350.232 429.422 350.556 429.813 350.782C430.204 351.008 430.648 351.127 431.1 351.128H440.772C441.224 351.128 441.667 351.009 442.059 350.783C442.45 350.557 442.775 350.232 443 349.84L448.865 339.69L437.168 333.308V333.302ZM409.032 368.354C411.239 376.204 414.764 383.621 419.458 390.289L425.152 380.43C425.378 380.039 425.497 379.595 425.497 379.143C425.497 378.691 425.378 378.247 425.152 377.855L420.41 369.641C420.184 369.25 419.859 368.925 419.468 368.699C419.077 368.473 418.633 368.354 418.181 368.354H409.032ZM462.828 368.354C460.623 376.203 457.1 383.621 452.408 390.289L446.714 380.43C446.488 380.039 446.369 379.595 446.369 379.143C446.369 378.691 446.488 378.247 446.714 377.855L451.462 369.641C451.687 369.25 452.012 368.925 452.403 368.699C452.794 368.473 453.238 368.354 453.69 368.354H462.834H462.828ZM431.1 381.288C430.647 381.288 430.202 381.406 429.81 381.632C429.418 381.858 429.092 382.184 428.866 382.576L422.264 394.02C425.819 398.437 429.88 402.424 434.362 405.898C434.814 406.245 435.368 406.434 435.938 406.434C436.509 406.434 437.063 406.245 437.515 405.898C441.995 402.422 446.054 398.433 449.608 394.014L443.005 382.576C442.78 382.185 442.455 381.86 442.064 381.634C441.673 381.408 441.229 381.289 440.777 381.288H431.094H431.1Z" fill="#8B63FF" fill-opacity="0.43"/>
<path d="M250 503.521C388.071 503.521 500 392.118 500 254.695C500 117.272 388.071 5.86853 250 5.86853C111.929 5.86853 0 117.272 0 254.695C0 392.118 111.929 503.521 250 503.521Z" fill="url(#paint0_radial_376_18)"/>
<path opacity="0.1" d="M1.85394 136.605L65.2423 169.807V225.945L1.85394 192.442L1.85394 136.605Z" fill="#8B63FF"/>
<path opacity="0.2" d="M128.409 136.638L65.0222 169.805V225.885L128.409 192.417V136.638Z" fill="#8B63FF"/>
<path opacity="0.3" d="M0 136.789L63.3884 103.286L126.777 136.789V137.039L63.3884 170.542L0 137.039L0 136.789Z" fill="#8B63FF"/>
<path opacity="0.1" d="M187.793 414.774L251.181 447.976V504.114L187.793 470.612V414.774Z" fill="#8B63FF"/>
<path opacity="0.2" d="M314.348 414.807L250.961 447.974V504.054L314.348 470.587V414.807Z" fill="#8B63FF"/>
<path opacity="0.3" d="M187.793 414.958L251.182 381.455L314.57 414.958V415.208L251.182 448.711L187.793 415.208V414.958Z" fill="#8B63FF"/>
<path opacity="0.1" d="M0 337.309L63.3884 370.511V426.65L0 393.147L0 337.309Z" fill="#8B63FF"/>
<path opacity="0.2" d="M126.555 337.343L63.1681 370.51V426.59L126.555 393.122V337.343Z" fill="#8B63FF"/>
<path opacity="0.3" d="M0 337.493L63.3884 303.99L126.777 337.493V337.744L63.3884 371.246L0 337.744L0 337.493Z" fill="#8B63FF"/>
<path opacity="0.1" d="M375.587 141.3L433.099 174.502V230.64L375.587 197.138V141.3Z" fill="#8B63FF"/>
<path opacity="0.2" d="M490.409 141.333L432.899 174.5V230.58L490.409 197.113V141.333Z" fill="#8B63FF"/>
<path opacity="0.3" d="M375.587 141.484L433.099 107.981L490.61 141.484V141.734L433.099 175.237L375.587 141.734V141.484Z" fill="#8B63FF"/>
<path opacity="0.1" d="M375.587 337.309L433.099 370.511V426.65L375.587 393.147V337.309Z" fill="#8B63FF"/>
<path opacity="0.2" d="M490.409 337.343L432.899 370.51V426.59L490.409 393.122V337.343Z" fill="#8B63FF"/>
<path opacity="0.3" d="M375.587 337.493L433.099 303.99L490.61 337.493V337.744L433.099 371.246L375.587 337.744V337.493Z" fill="#8B63FF"/>
<path opacity="0.1" d="M187.793 39.187L249.413 72.389V128.528L187.793 95.0248V39.187Z" fill="#8B63FF"/>
<path opacity="0.2" d="M310.816 39.2206L249.198 72.3878V128.467L310.816 94.9999V39.2206Z" fill="#8B63FF"/>
<path opacity="0.3" d="M187.793 39.371L249.413 5.86832L311.033 39.371V39.6216L249.413 73.1243L187.793 39.6216V39.371Z" fill="#8B63FF"/>
<path d="M375.587 197.183L251.174 127.934" stroke="#8B63FF" stroke-opacity="0.57" stroke-width="2" stroke-linecap="round"/>
<path d="M375.587 197.183V336.854" stroke="#8B63FF" stroke-opacity="0.57" stroke-width="2" stroke-linecap="round"/>
<path d="M375.587 197.183L251.174 381.455" stroke="#8B63FF" stroke-opacity="0.57" stroke-width="2" stroke-linecap="round"/>
<path d="M375.587 197.183L126.761 338.028" stroke="#8B63FF" stroke-opacity="0.57" stroke-width="2" stroke-linecap="round"/>
<path d="M375.587 197.183L127.934 192.488" stroke="#8B63FF" stroke-opacity="0.57" stroke-width="2" stroke-linecap="round"/>
<path d="M126.761 336.854L127.934 192.488" stroke="#8B63FF" stroke-opacity="0.57" stroke-width="2" stroke-linecap="round"/>
<path d="M251.174 381.455L127.934 192.488" stroke="#8B63FF" stroke-opacity="0.57" stroke-width="2" stroke-linecap="round"/>
<path d="M375.587 338.028L127.934 192.488" stroke="#8B63FF" stroke-opacity="0.57" stroke-width="2" stroke-linecap="round"/>
<path d="M127.934 192.488L251.174 127.934" stroke="#8B63FF" stroke-opacity="0.57" stroke-width="2" stroke-linecap="round"/>
<path d="M251.174 381.455L251.174 127.934" stroke="#8B63FF" stroke-opacity="0.57" stroke-width="2" stroke-linecap="round"/>
<path d="M126.761 338.028L251.174 127.934" stroke="#8B63FF" stroke-opacity="0.57" stroke-width="2" stroke-linecap="round"/>
<path d="M126.761 338.028L251.174 381.455" stroke="#8B63FF" stroke-opacity="0.57" stroke-width="2" stroke-linecap="round"/>
<path d="M126.761 338.028H375.587" stroke="#8B63FF" stroke-opacity="0.57" stroke-width="2" stroke-linecap="round"/>
<path d="M251.174 381.455L375.587 338.028" stroke="#8B63FF" stroke-opacity="0.57" stroke-width="2" stroke-linecap="round"/>
<path d="M375.587 338.028L251.174 127.934" stroke="#8B63FF" stroke-opacity="0.57" stroke-width="2" stroke-linecap="round"/>
<defs>
<radialGradient id="paint0_radial_376_18" cx="0" cy="0" r="1" gradientUnits="userSpaceOnUse" gradientTransform="translate(250 254.695) rotate(90) scale(248.826 250)">
<stop stop-color="#8B63FF" stop-opacity="0"/>
<stop offset="0.770833" stop-color="#B094FF" stop-opacity="0.1"/>
<stop offset="1" stop-color="#8B63FF" stop-opacity="0"/>
</radialGradient>
</defs>
</svg>
