<svg width="359" height="411" viewBox="0 0 359 411" fill="none" xmlns="http://www.w3.org/2000/svg">
<path d="M0 107C0 90.4315 13.4315 77 30 77H329C345.569 77 359 90.4315 359 107V206H0V107Z" fill="#D9D9D9"/>
<path d="M93.8295 159V153.682L106.256 142.176C107.313 141.153 108.199 140.233 108.915 139.415C109.642 138.597 110.193 137.795 110.568 137.011C110.943 136.216 111.131 135.358 111.131 134.438C111.131 133.415 110.898 132.534 110.432 131.795C109.966 131.045 109.33 130.472 108.523 130.074C107.716 129.665 106.801 129.46 105.778 129.46C104.71 129.46 103.778 129.676 102.983 130.108C102.188 130.54 101.574 131.159 101.142 131.966C100.71 132.773 100.494 133.733 100.494 134.847H93.4886C93.4886 132.562 94.0057 130.58 95.0398 128.898C96.0739 127.216 97.5227 125.915 99.3864 124.994C101.25 124.074 103.398 123.614 105.83 123.614C108.33 123.614 110.506 124.057 112.358 124.943C114.222 125.818 115.67 127.034 116.705 128.591C117.739 130.148 118.256 131.932 118.256 133.943C118.256 135.261 117.994 136.562 117.472 137.847C116.96 139.131 116.045 140.557 114.727 142.125C113.409 143.682 111.551 145.551 109.153 147.733L104.057 152.727V152.966H118.716V159H93.8295Z" fill="black"/>
<path d="M254.517 159.767C251.585 159.756 249.063 159.034 246.949 157.602C244.847 156.17 243.227 154.097 242.091 151.381C240.966 148.665 240.409 145.398 240.42 141.58C240.42 137.773 240.983 134.528 242.108 131.847C243.244 129.165 244.864 127.125 246.966 125.727C249.08 124.318 251.597 123.614 254.517 123.614C257.438 123.614 259.949 124.318 262.051 125.727C264.165 127.136 265.79 129.182 266.926 131.864C268.063 134.534 268.625 137.773 268.614 141.58C268.614 145.409 268.045 148.682 266.909 151.398C265.784 154.114 264.17 156.187 262.068 157.619C259.966 159.051 257.449 159.767 254.517 159.767ZM254.517 153.648C256.517 153.648 258.114 152.642 259.307 150.631C260.5 148.619 261.091 145.602 261.08 141.58C261.08 138.932 260.807 136.727 260.261 134.966C259.727 133.205 258.966 131.881 257.977 130.994C257 130.108 255.847 129.665 254.517 129.665C252.528 129.665 250.938 130.659 249.744 132.648C248.551 134.636 247.949 137.614 247.938 141.58C247.938 144.261 248.205 146.5 248.739 148.295C249.284 150.08 250.051 151.42 251.04 152.318C252.028 153.205 253.188 153.648 254.517 153.648Z" fill="black"/>
<path d="M174.065 159C172.226 159 171 157.654 171 155.635C171 154.625 171.306 153.952 171.919 153.279L182.645 141.5L171.919 129.721C170.694 128.375 170.694 126.356 171.919 125.01C173.145 123.663 174.984 123.663 176.21 125.01L189.081 139.144C190.306 140.49 190.306 142.51 189.081 143.856L176.21 157.99C175.597 158.663 174.677 159 174.065 159Z" fill="black"/>
<path d="M0 206H359V305C359 321.569 345.569 335 329 335H30C13.4315 335 0 321.569 0 305V206Z" fill="#050508"/>
<rect x="98" y="235" width="162" height="72" rx="10" fill="#D9D9D9"/>
<path d="M146.088 290.355C144.819 290.355 143.725 290.054 142.807 289.453C141.888 288.847 141.18 287.978 140.683 286.847C140.186 285.71 139.94 284.344 139.945 282.749C139.949 281.153 140.198 279.799 140.69 278.686C141.188 277.569 141.893 276.719 142.807 276.136C143.725 275.549 144.819 275.256 146.088 275.256C147.357 275.256 148.451 275.549 149.369 276.136C150.293 276.719 151.003 277.569 151.5 278.686C151.997 279.804 152.243 281.158 152.239 282.749C152.239 284.349 151.99 285.717 151.493 286.854C150.996 287.99 150.288 288.859 149.369 289.46C148.455 290.057 147.362 290.355 146.088 290.355ZM146.088 287.479C146.846 287.479 147.459 287.093 147.928 286.321C148.396 285.545 148.628 284.354 148.624 282.749C148.624 281.697 148.517 280.831 148.304 280.149C148.091 279.463 147.795 278.951 147.416 278.615C147.037 278.279 146.595 278.111 146.088 278.111C145.335 278.111 144.727 278.492 144.263 279.254C143.799 280.012 143.564 281.177 143.56 282.749C143.555 283.814 143.657 284.697 143.865 285.398C144.078 286.098 144.376 286.622 144.76 286.967C145.143 287.308 145.586 287.479 146.088 287.479ZM155.609 290.206C155.097 290.206 154.659 290.026 154.295 289.666C153.935 289.306 153.757 288.871 153.762 288.359C153.757 287.857 153.935 287.429 154.295 287.074C154.659 286.714 155.097 286.534 155.609 286.534C156.092 286.534 156.518 286.714 156.887 287.074C157.261 287.429 157.451 287.857 157.455 288.359C157.451 288.7 157.361 289.01 157.185 289.29C157.015 289.569 156.79 289.792 156.511 289.957C156.236 290.123 155.935 290.206 155.609 290.206ZM164.884 275.256C165.68 275.256 166.44 275.386 167.164 275.646C167.888 275.902 168.535 276.312 169.103 276.875C169.671 277.434 170.119 278.17 170.445 279.084C170.772 279.998 170.935 281.113 170.935 282.429C170.94 283.641 170.798 284.728 170.509 285.689C170.22 286.645 169.806 287.46 169.266 288.132C168.731 288.804 168.087 289.318 167.335 289.673C166.582 290.024 165.741 290.199 164.813 290.199C163.79 290.199 162.888 290.002 162.107 289.609C161.331 289.212 160.708 288.677 160.239 288.004C159.775 287.332 159.498 286.579 159.408 285.746H162.867C162.976 286.229 163.206 286.593 163.556 286.839C163.906 287.081 164.326 287.202 164.813 287.202C165.703 287.202 166.369 286.816 166.809 286.044C167.249 285.272 167.469 284.223 167.469 282.898H167.384C167.181 283.333 166.892 283.707 166.518 284.02C166.148 284.332 165.72 284.571 165.232 284.737C164.745 284.903 164.231 284.986 163.691 284.986C162.82 284.986 162.05 284.787 161.383 284.389C160.72 283.991 160.199 283.445 159.82 282.749C159.446 282.053 159.257 281.257 159.252 280.362C159.247 279.358 159.482 278.473 159.955 277.706C160.429 276.934 161.089 276.333 161.937 275.902C162.784 275.466 163.767 275.251 164.884 275.256ZM164.906 277.955C164.47 277.955 164.082 278.056 163.741 278.26C163.405 278.464 163.139 278.738 162.945 279.084C162.751 279.429 162.656 279.818 162.661 280.249C162.666 280.679 162.763 281.068 162.952 281.413C163.147 281.759 163.409 282.034 163.741 282.237C164.077 282.441 164.46 282.543 164.891 282.543C165.213 282.543 165.512 282.483 165.786 282.365C166.061 282.247 166.3 282.083 166.504 281.875C166.707 281.662 166.866 281.416 166.979 281.136C167.098 280.857 167.155 280.559 167.15 280.241C167.145 279.82 167.046 279.437 166.852 279.091C166.657 278.745 166.39 278.471 166.049 278.267C165.713 278.059 165.332 277.955 164.906 277.955ZM178.398 290.199C177.29 290.199 176.308 290.009 175.451 289.631C174.598 289.247 173.926 288.719 173.434 288.047C172.941 287.375 172.69 286.6 172.681 285.724H176.218C176.232 286.042 176.334 286.323 176.523 286.57C176.712 286.811 176.971 287 177.297 287.138C177.624 287.275 177.996 287.344 178.412 287.344C178.829 287.344 179.196 287.27 179.513 287.124C179.835 286.972 180.086 286.766 180.266 286.506C180.446 286.241 180.533 285.937 180.529 285.597C180.533 285.256 180.436 284.953 180.238 284.688C180.039 284.422 179.757 284.216 179.392 284.07C179.033 283.923 178.606 283.849 178.114 283.849H176.701V281.349H178.114C178.545 281.349 178.924 281.278 179.25 281.136C179.582 280.994 179.84 280.795 180.025 280.54C180.209 280.279 180.299 279.981 180.294 279.645C180.299 279.318 180.221 279.032 180.06 278.786C179.904 278.535 179.684 278.34 179.4 278.203C179.12 278.066 178.796 277.997 178.426 277.997C178.038 277.997 177.685 278.066 177.368 278.203C177.056 278.34 176.807 278.535 176.623 278.786C176.438 279.036 176.341 279.328 176.331 279.659H172.972C172.981 278.793 173.223 278.03 173.696 277.372C174.17 276.709 174.814 276.191 175.628 275.817C176.447 275.443 177.38 275.256 178.426 275.256C179.468 275.256 180.384 275.438 181.175 275.803C181.966 276.167 182.581 276.664 183.022 277.294C183.462 277.919 183.682 278.627 183.682 279.418C183.687 280.237 183.419 280.911 182.88 281.442C182.345 281.972 181.656 282.299 180.813 282.422V282.536C181.94 282.668 182.79 283.033 183.363 283.629C183.94 284.226 184.227 284.972 184.222 285.866C184.222 286.709 183.973 287.457 183.476 288.111C182.984 288.759 182.297 289.271 181.417 289.645C180.541 290.014 179.534 290.199 178.398 290.199ZM191.773 290.199C190.713 290.199 189.771 290.007 188.947 289.624C188.123 289.24 187.472 288.712 186.994 288.04C186.52 287.367 186.274 286.596 186.255 285.724H189.664C189.692 286.259 189.91 286.69 190.317 287.017C190.725 287.339 191.21 287.5 191.773 287.5C192.214 287.5 192.604 287.403 192.945 287.209C193.286 287.015 193.554 286.742 193.748 286.392C193.942 286.037 194.037 285.63 194.032 285.17C194.037 284.702 193.94 284.292 193.741 283.942C193.547 283.591 193.277 283.319 192.931 283.125C192.59 282.926 192.197 282.827 191.752 282.827C191.331 282.822 190.931 282.914 190.552 283.104C190.178 283.293 189.894 283.551 189.7 283.878L186.596 283.295L187.228 275.455H196.56V278.288H190.119L189.785 281.719H189.87C190.112 281.316 190.5 280.985 191.035 280.724C191.575 280.459 192.188 280.327 192.874 280.327C193.746 280.327 194.522 280.53 195.204 280.938C195.89 281.34 196.43 281.899 196.823 282.614C197.221 283.329 197.42 284.148 197.42 285.071C197.42 286.07 197.183 286.955 196.71 287.727C196.241 288.499 195.583 289.105 194.735 289.545C193.892 289.981 192.905 290.199 191.773 290.199ZM199.35 290V287.472L204.655 282.827C205.053 282.467 205.391 282.138 205.671 281.839C205.95 281.536 206.163 281.233 206.31 280.93C206.457 280.623 206.53 280.289 206.53 279.929C206.53 279.527 206.443 279.183 206.267 278.899C206.092 278.61 205.851 278.388 205.543 278.232C205.235 278.075 204.882 277.997 204.485 277.997C204.082 277.997 203.73 278.08 203.426 278.246C203.123 278.407 202.887 278.641 202.716 278.949C202.551 279.257 202.468 279.631 202.468 280.071H199.137C199.137 279.081 199.359 278.227 199.804 277.507C200.249 276.787 200.874 276.233 201.679 275.845C202.489 275.452 203.429 275.256 204.499 275.256C205.602 275.256 206.561 275.44 207.375 275.81C208.19 276.179 208.819 276.695 209.265 277.358C209.714 278.016 209.939 278.781 209.939 279.652C209.939 280.206 209.828 280.755 209.605 281.3C209.383 281.844 208.983 282.446 208.405 283.104C207.832 283.762 207.018 284.55 205.962 285.469L204.222 287.074V287.166H210.117V290H199.35ZM212.104 290V287.472L217.409 282.827C217.807 282.467 218.145 282.138 218.425 281.839C218.704 281.536 218.917 281.233 219.064 280.93C219.211 280.623 219.284 280.289 219.284 279.929C219.284 279.527 219.196 279.183 219.021 278.899C218.846 278.61 218.605 278.388 218.297 278.232C217.989 278.075 217.636 277.997 217.239 277.997C216.836 277.997 216.483 278.08 216.18 278.246C215.877 278.407 215.641 278.641 215.47 278.949C215.304 279.257 215.222 279.631 215.222 280.071H211.891C211.891 279.081 212.113 278.227 212.558 277.507C213.003 276.787 213.628 276.233 214.433 275.845C215.243 275.452 216.183 275.256 217.253 275.256C218.356 275.256 219.315 275.44 220.129 275.81C220.944 276.179 221.573 276.695 222.018 277.358C222.468 278.016 222.693 278.781 222.693 279.652C222.693 280.206 222.582 280.755 222.359 281.3C222.137 281.844 221.737 282.446 221.159 283.104C220.586 283.762 219.772 284.55 218.716 285.469L216.976 287.074V287.166H222.871V290H212.104Z" fill="#9E0D0D" fill-opacity="0.56"/>
<path d="M145.122 270.318C144.142 270.318 143.302 270.183 142.601 269.913C141.905 269.648 141.351 269.286 140.939 268.827C140.527 268.367 140.259 267.851 140.136 267.278L142.935 266.902C143.02 267.12 143.155 267.323 143.339 267.513C143.524 267.702 143.768 267.854 144.071 267.967C144.379 268.086 144.753 268.145 145.193 268.145C145.851 268.145 146.393 267.984 146.82 267.662C147.25 267.345 147.466 266.812 147.466 266.064V264.068H147.338C147.205 264.371 147.007 264.658 146.741 264.928C146.476 265.197 146.135 265.418 145.719 265.588C145.302 265.759 144.805 265.844 144.227 265.844C143.408 265.844 142.662 265.654 141.99 265.276C141.322 264.892 140.79 264.307 140.392 263.521C139.999 262.731 139.803 261.732 139.803 260.524C139.803 259.288 140.004 258.256 140.406 257.428C140.809 256.599 141.344 255.979 142.011 255.567C142.684 255.155 143.42 254.949 144.22 254.949C144.831 254.949 145.342 255.053 145.754 255.261C146.166 255.465 146.498 255.721 146.749 256.028C147.004 256.331 147.201 256.63 147.338 256.923H147.452V255.091H150.456V266.107C150.456 267.035 150.229 267.811 149.774 268.436C149.32 269.061 148.69 269.53 147.885 269.842C147.085 270.16 146.164 270.318 145.122 270.318ZM145.186 263.571C145.674 263.571 146.086 263.45 146.422 263.209C146.763 262.963 147.023 262.612 147.203 262.158C147.388 261.698 147.48 261.149 147.48 260.51C147.48 259.871 147.39 259.317 147.21 258.848C147.03 258.375 146.77 258.008 146.429 257.747C146.088 257.487 145.674 257.357 145.186 257.357C144.689 257.357 144.27 257.491 143.929 257.761C143.588 258.027 143.33 258.396 143.155 258.869C142.98 259.343 142.892 259.89 142.892 260.51C142.892 261.14 142.98 261.684 143.155 262.143C143.335 262.598 143.593 262.951 143.929 263.202C144.27 263.448 144.689 263.571 145.186 263.571ZM152.864 266V255.091H155.797V256.994H155.911C156.109 256.317 156.443 255.806 156.912 255.46C157.381 255.11 157.92 254.935 158.531 254.935C158.683 254.935 158.846 254.944 159.021 254.963C159.196 254.982 159.35 255.008 159.483 255.041V257.726C159.341 257.683 159.144 257.645 158.893 257.612C158.643 257.579 158.413 257.562 158.205 257.562C157.759 257.562 157.362 257.66 157.011 257.854C156.666 258.043 156.391 258.308 156.188 258.649C155.989 258.99 155.889 259.383 155.889 259.828V266H152.864ZM163.846 266.206C163.15 266.206 162.529 266.085 161.985 265.844C161.44 265.598 161.009 265.235 160.692 264.757C160.38 264.274 160.223 263.673 160.223 262.953C160.223 262.347 160.335 261.838 160.557 261.426C160.78 261.014 161.083 260.683 161.466 260.432C161.85 260.181 162.285 259.991 162.773 259.864C163.266 259.736 163.782 259.646 164.321 259.594C164.956 259.527 165.467 259.466 165.855 259.409C166.244 259.348 166.525 259.258 166.701 259.139C166.876 259.021 166.963 258.846 166.963 258.614V258.571C166.963 258.121 166.821 257.773 166.537 257.527C166.258 257.281 165.86 257.158 165.344 257.158C164.8 257.158 164.366 257.278 164.044 257.52C163.722 257.757 163.509 258.055 163.405 258.415L160.607 258.188C160.749 257.525 161.028 256.952 161.445 256.469C161.862 255.981 162.399 255.607 163.057 255.347C163.72 255.081 164.487 254.949 165.358 254.949C165.964 254.949 166.544 255.02 167.098 255.162C167.657 255.304 168.152 255.524 168.583 255.822C169.018 256.121 169.362 256.504 169.613 256.973C169.864 257.437 169.989 257.993 169.989 258.642V266H167.12V264.487H167.034C166.859 264.828 166.625 265.129 166.331 265.389C166.038 265.645 165.685 265.846 165.273 265.993C164.861 266.135 164.385 266.206 163.846 266.206ZM164.712 264.118C165.157 264.118 165.55 264.03 165.891 263.855C166.232 263.675 166.499 263.434 166.694 263.131C166.888 262.828 166.985 262.484 166.985 262.101V260.943C166.89 261.005 166.76 261.062 166.594 261.114C166.433 261.161 166.251 261.206 166.047 261.249C165.844 261.286 165.64 261.322 165.436 261.355C165.233 261.384 165.048 261.41 164.882 261.433C164.527 261.485 164.217 261.568 163.952 261.682C163.687 261.795 163.481 261.949 163.334 262.143C163.187 262.333 163.114 262.57 163.114 262.854C163.114 263.266 163.263 263.58 163.561 263.798C163.864 264.011 164.248 264.118 164.712 264.118ZM176.356 266.178C175.528 266.178 174.777 265.964 174.105 265.538C173.437 265.107 172.907 264.475 172.514 263.642C172.126 262.804 171.931 261.777 171.931 260.56C171.931 259.31 172.133 258.27 172.535 257.442C172.938 256.608 173.473 255.986 174.14 255.574C174.813 255.157 175.549 254.949 176.349 254.949C176.96 254.949 177.469 255.053 177.876 255.261C178.288 255.465 178.619 255.721 178.87 256.028C179.126 256.331 179.32 256.63 179.453 256.923H179.545V251.455H182.564V266H179.581V264.253H179.453C179.311 264.556 179.109 264.857 178.849 265.155C178.593 265.448 178.26 265.692 177.848 265.886C177.44 266.08 176.943 266.178 176.356 266.178ZM177.315 263.77C177.803 263.77 178.215 263.637 178.551 263.372C178.892 263.102 179.152 262.726 179.332 262.243C179.517 261.76 179.609 261.194 179.609 260.545C179.609 259.897 179.519 259.333 179.339 258.855C179.159 258.377 178.899 258.008 178.558 257.747C178.217 257.487 177.803 257.357 177.315 257.357C176.818 257.357 176.399 257.491 176.058 257.761C175.717 258.031 175.459 258.405 175.284 258.884C175.109 259.362 175.021 259.916 175.021 260.545C175.021 261.18 175.109 261.741 175.284 262.229C175.464 262.712 175.722 263.09 176.058 263.365C176.399 263.635 176.818 263.77 177.315 263.77ZM190.023 266.213C188.901 266.213 187.935 265.986 187.125 265.531C186.32 265.072 185.7 264.423 185.264 263.585C184.829 262.742 184.611 261.746 184.611 260.595C184.611 259.473 184.829 258.488 185.264 257.641C185.7 256.793 186.313 256.133 187.104 255.659C187.899 255.186 188.832 254.949 189.902 254.949C190.622 254.949 191.292 255.065 191.912 255.297C192.537 255.524 193.081 255.867 193.545 256.327C194.014 256.786 194.379 257.364 194.639 258.06C194.9 258.751 195.03 259.561 195.03 260.489V261.32H185.818V259.445H192.182C192.182 259.009 192.087 258.623 191.898 258.287C191.708 257.951 191.446 257.688 191.109 257.499C190.778 257.304 190.392 257.207 189.952 257.207C189.492 257.207 189.085 257.314 188.73 257.527C188.38 257.735 188.105 258.017 187.906 258.372C187.707 258.723 187.606 259.113 187.601 259.544V261.327C187.601 261.866 187.7 262.333 187.899 262.726C188.103 263.119 188.389 263.422 188.759 263.635C189.128 263.848 189.566 263.955 190.072 263.955C190.409 263.955 190.716 263.907 190.996 263.812C191.275 263.718 191.514 263.576 191.713 263.386C191.912 263.197 192.063 262.965 192.168 262.69L194.966 262.875C194.824 263.547 194.533 264.134 194.092 264.636C193.657 265.134 193.093 265.522 192.402 265.801C191.715 266.076 190.922 266.213 190.023 266.213Z" fill="black"/>
</svg>
