<svg width="151" height="51" viewBox="0 0 151 51" fill="none" xmlns="http://www.w3.org/2000/svg">
<g filter="url(#filter0_d_510_199)">
<rect x="4" width="143" height="43" rx="20" fill="url(#paint0_linear_510_199)" shape-rendering="crispEdges"/>
<path d="M57.9247 27V19.3636H59.6449V20.6612H59.7344C59.8935 20.2237 60.157 19.8823 60.5249 19.6371C60.8928 19.3885 61.3319 19.2642 61.8423 19.2642C62.3594 19.2642 62.7952 19.3902 63.1499 19.642C63.5078 19.8906 63.7597 20.2304 63.9055 20.6612H63.9851C64.1541 20.237 64.4392 19.8989 64.8402 19.647C65.2446 19.3918 65.7235 19.2642 66.277 19.2642C66.9796 19.2642 67.553 19.4863 67.9972 19.9304C68.4413 20.3745 68.6634 21.0225 68.6634 21.8743V27H66.8587V22.1527C66.8587 21.6787 66.7327 21.3324 66.4808 21.1136C66.2289 20.8916 65.9207 20.7805 65.5561 20.7805C65.1219 20.7805 64.7822 20.9164 64.5369 21.1882C64.295 21.4567 64.174 21.8063 64.174 22.2372V27H62.4091V22.0781C62.4091 21.6837 62.2898 21.3688 62.0511 21.1335C61.8158 20.8982 61.5076 20.7805 61.1264 20.7805C60.8679 20.7805 60.6326 20.8468 60.4205 20.9794C60.2083 21.1087 60.0393 21.2926 59.9134 21.5312C59.7874 21.7666 59.7244 22.0417 59.7244 22.3565V27H57.9247ZM70.4892 27V19.3636H72.2889V27H70.4892ZM71.394 18.2798C71.109 18.2798 70.8637 18.1854 70.6582 17.9964C70.4527 17.8042 70.35 17.5739 70.35 17.3054C70.35 17.0336 70.4527 16.8033 70.6582 16.6143C70.8637 16.4221 71.109 16.326 71.394 16.326C71.6824 16.326 71.9276 16.4221 72.1298 16.6143C72.3353 16.8033 72.438 17.0336 72.438 17.3054C72.438 17.5739 72.3353 17.8042 72.1298 17.9964C71.9276 18.1854 71.6824 18.2798 71.394 18.2798ZM75.9393 22.5256V27H74.1396V19.3636H75.8597V20.6612H75.9492C76.1249 20.2337 76.4049 19.8939 76.7894 19.642C77.1772 19.3902 77.6561 19.2642 78.2262 19.2642C78.7532 19.2642 79.2122 19.3769 79.6033 19.6023C79.9978 19.8277 80.3027 20.1541 80.5181 20.5817C80.7369 21.0092 80.8446 21.5279 80.8413 22.1378V27H79.0415V22.4162C79.0415 21.9058 78.909 21.5064 78.6438 21.218C78.382 20.9297 78.0191 20.7855 77.555 20.7855C77.2402 20.7855 76.9601 20.8551 76.7148 20.9943C76.4729 21.1302 76.2823 21.3274 76.1431 21.5859C76.0072 21.8445 75.9393 22.1577 75.9393 22.5256ZM86.484 19.3636V20.7557H82.0941V19.3636H86.484ZM83.1779 17.5341H84.9776V24.7031C84.9776 24.9451 85.0141 25.1307 85.087 25.2599C85.1632 25.3859 85.2627 25.4721 85.3853 25.5185C85.5079 25.5649 85.6438 25.5881 85.793 25.5881C85.9057 25.5881 86.0084 25.5798 86.1012 25.5632C86.1973 25.5466 86.2702 25.5317 86.32 25.5185L86.6232 26.9254C86.5271 26.9586 86.3896 26.995 86.2106 27.0348C86.0349 27.0746 85.8195 27.0978 85.5643 27.1044C85.1135 27.1177 84.7075 27.0497 84.3462 26.9006C83.985 26.7481 83.6983 26.5128 83.4862 26.1946C83.2773 25.8764 83.1746 25.4787 83.1779 25.0014V17.5341Z" fill="white"/>
<path d="M113 23.0057L120.59 23.0057L117.29 26.2957C117.102 26.484 116.996 26.7394 116.996 27.0057C116.996 27.272 117.102 27.5274 117.29 27.7157C117.478 27.904 117.734 28.0098 118 28.0098C118.266 28.0098 118.522 27.904 118.71 27.7157L123.71 22.7157C123.801 22.6206 123.873 22.5084 123.92 22.3857C124.02 22.1422 124.02 21.8691 123.92 21.6257C123.873 21.5029 123.801 21.3908 123.71 21.2957L118.71 16.2957C118.617 16.2019 118.507 16.1276 118.385 16.0768C118.263 16.026 118.132 15.9999 118 15.9999C117.868 15.9999 117.737 16.026 117.616 16.0768C117.494 16.1276 117.383 16.2019 117.29 16.2957C117.196 16.3886 117.122 16.4992 117.071 16.6211C117.02 16.743 116.994 16.8737 116.994 17.0057C116.994 17.1377 117.02 17.2684 117.071 17.3903C117.122 17.5121 117.196 17.6227 117.29 17.7157L120.59 21.0057L113 21.0057C112.735 21.0057 112.481 21.111 112.293 21.2986C112.105 21.4861 112 21.7405 112 22.0057C112 22.2709 112.105 22.5252 112.293 22.7128C112.481 22.9003 112.735 23.0057 113 23.0057Z" fill="white"/>
</g>
<defs>
<filter id="filter0_d_510_199" x="0" y="0" width="151" height="51" filterUnits="userSpaceOnUse" color-interpolation-filters="sRGB">
<feFlood flood-opacity="0" result="BackgroundImageFix"/>
<feColorMatrix in="SourceAlpha" type="matrix" values="0 0 0 0 0 0 0 0 0 0 0 0 0 0 0 0 0 0 127 0" result="hardAlpha"/>
<feOffset dy="4"/>
<feGaussianBlur stdDeviation="2"/>
<feComposite in2="hardAlpha" operator="out"/>
<feColorMatrix type="matrix" values="0 0 0 0 0 0 0 0 0 0 0 0 0 0 0 0 0 0 0.25 0"/>
<feBlend mode="normal" in2="BackgroundImageFix" result="effect1_dropShadow_510_199"/>
<feBlend mode="normal" in="SourceGraphic" in2="effect1_dropShadow_510_199" result="shape"/>
</filter>
<linearGradient id="paint0_linear_510_199" x1="4" y1="21.0943" x2="186.585" y2="22.6258" gradientUnits="userSpaceOnUse">
<stop stop-color="#B341B1"/>
<stop offset="1" stop-color="#3585E0" stop-opacity="0.9"/>
</linearGradient>
</defs>
</svg>
