<svg width="515" height="150" viewBox="0 0 515 150" fill="none" xmlns="http://www.w3.org/2000/svg">
<path d="M151.536 54.704V49.84H186.352V54.704H171.632V94H166.256V54.704H151.536ZM190.802 84.4V60.72H195.922V85.04C195.922 88.0267 197.415 89.52 200.402 89.52H213.202V60.72H218.322V94H200.402C194.002 94 190.802 90.8 190.802 84.4ZM228.302 94V64.56C229.795 62 232.568 60.72 236.622 60.72H243.022L245.582 62.64V65.2H237.326C235.534 65.2 234.232 65.6907 233.422 66.672V94H228.302ZM252.114 84.4V49.84H257.234V60.72H269.394V65.2H257.234V85.04C257.234 88.0267 258.727 89.52 261.714 89.52H270.034V92.08L267.474 94H261.714C255.314 94 252.114 90.8 252.114 84.4ZM277.177 84.912V46.64H282.297V85.424C282.297 88.368 283.79 89.9253 286.777 90.096V94.512C280.377 94.512 277.177 91.312 277.177 84.912ZM293.546 84.4V70.32C293.546 63.92 296.746 60.72 303.146 60.72H311.466C317.866 60.72 321.066 63.92 321.066 70.32V79.344H298.666V85.04C298.666 88.0267 300.159 89.52 303.146 89.52H319.786V92.08L317.226 94H303.146C296.746 94 293.546 90.8 293.546 84.4ZM298.666 75.184H315.946V69.68C315.946 66.6933 314.452 65.2 311.466 65.2H303.146C300.159 65.2 298.666 66.6933 298.666 69.68V75.184ZM329.528 91.76V89.136H349.24C352.141 89.136 353.592 87.6853 353.592 84.784V79.6C353.592 77.168 352.504 75.7387 350.328 75.312L336.568 72.496C331.874 71.5573 329.528 68.4213 329.528 63.088V59.632C329.528 53.104 332.792 49.84 339.32 49.84H354.808L357.688 52.08V54.704H339.256C336.354 54.704 334.904 56.1547 334.904 59.056V63.408C334.904 65.84 335.992 67.2693 338.168 67.696L351.928 70.448C356.621 71.3867 358.968 74.544 358.968 79.92V84.208C358.968 90.736 355.704 94 349.176 94H332.408L329.528 91.76ZM367.933 94V46.64H373.053V60.72H385.853C392.253 60.72 395.453 63.92 395.453 70.32V94H390.333V69.68C390.333 66.6933 388.839 65.2 385.853 65.2H373.053V94H367.933ZM404.921 84.4V70.32C404.921 63.92 408.121 60.72 414.521 60.72H422.841C429.241 60.72 432.441 63.92 432.441 70.32V79.344H410.041V85.04C410.041 88.0267 411.534 89.52 414.521 89.52H431.161V92.08L428.601 94H414.521C408.121 94 404.921 90.8 404.921 84.4ZM410.041 75.184H427.321V69.68C427.321 66.6933 425.827 65.2 422.841 65.2H414.521C411.534 65.2 410.041 66.6933 410.041 69.68V75.184ZM441.927 84.912V46.64H447.047V85.424C447.047 88.368 448.54 89.9253 451.527 90.096V94.512C445.127 94.512 441.927 91.312 441.927 84.912ZM458.552 84.912V46.64H463.672V85.424C463.672 88.368 465.165 89.9253 468.152 90.096V94.512C461.752 94.512 458.552 91.312 458.552 84.912Z" fill="url(#paint0_linear_11_4974)"/>
<g clip-path="url(#clip0_11_4974)">
<path d="M75 150C116.421 150 150 116.421 150 75C150 33.5786 116.421 0 75 0C33.5786 0 0 33.5786 0 75C0 116.421 33.5786 150 75 150Z" fill="url(#paint1_radial_11_4974)"/>
<path d="M75.028 26.25C76.8749 26.25 78.689 26.7328 80.2874 27.6562L113.85 47.0344C115.45 47.9586 116.778 49.2877 117.701 50.8882C118.625 52.4886 119.11 54.3039 119.109 56.1516V95.6859C119.109 99.4453 117.108 102.919 113.85 104.798L80.2827 124.181C78.683 125.105 76.8682 125.591 75.021 125.591C73.1737 125.591 71.359 125.105 69.7593 124.181L36.1874 104.798C34.5877 103.875 33.2591 102.547 32.3351 100.947C31.4111 99.3476 30.9242 97.5331 30.9233 95.6859V56.1516C30.9233 52.3922 32.9296 48.9187 36.1874 47.0344L69.7499 27.6562C71.353 26.7328 73.1718 26.2453 75.014 26.2453H75.0233L75.028 26.25ZM75.0187 18.9328C71.8886 18.9346 68.8141 19.7591 66.103 21.3234L32.5312 40.6969C29.8223 42.2663 27.5728 44.5192 26.0074 47.2304C24.442 49.9416 23.6157 53.0162 23.6108 56.1469V95.6812C23.6157 98.8119 24.442 101.886 26.0074 104.598C27.5728 107.309 29.8223 109.562 32.5312 111.131L66.0937 130.509C71.6155 133.697 78.4171 133.697 83.9343 130.509L117.501 111.131C120.21 109.562 122.46 107.309 124.025 104.598C125.591 101.886 126.417 98.8119 126.422 95.6812V56.1469C126.417 53.0162 125.591 49.9416 124.025 47.2304C122.46 44.5192 120.21 42.2663 117.501 40.6969L83.939 21.3141C81.2252 19.7481 78.1472 18.9236 75.014 18.9234L75.0187 18.9328Z" fill="white"/>
<path d="M70.9076 82.125C70.522 82.1256 70.143 82.0245 69.8089 81.8319C69.4747 81.6394 69.1973 81.3621 69.0045 81.0281L64.9685 74.0297C64.776 73.6962 64.6746 73.3179 64.6746 72.9328C64.6746 72.5477 64.776 72.1694 64.9685 71.8359L69.0045 64.8375C69.1973 64.5035 69.4747 64.2263 69.8089 64.0337C70.143 63.8411 70.522 63.74 70.9076 63.7406H79.1482C79.5329 63.7418 79.9105 63.8437 80.2436 64.0361C80.5766 64.2286 80.8535 64.5049 81.0467 64.8375L85.0873 71.8359C85.2798 72.1694 85.3812 72.5477 85.3812 72.9328C85.3812 73.3179 85.2798 73.6962 85.0873 74.0297L81.0467 81.0281C80.8542 81.3614 80.5775 81.6382 80.2443 81.8308C79.9111 82.0233 79.5331 82.1248 79.1482 82.125H70.9076ZM59.8967 71.1047C60.2821 71.1043 60.6607 71.0028 60.9947 70.8104C61.3286 70.6179 61.6062 70.3412 61.7998 70.0078L65.8357 63.0094C66.0283 62.6759 66.1296 62.2976 66.1296 61.9125C66.1296 61.5274 66.0283 61.1491 65.8357 60.8156L60.8013 52.0922L50.9717 57.4547C50.6193 57.6478 50.3267 57.9339 50.1258 58.2819C49.9249 58.6299 49.8235 59.0264 49.8326 59.4281C49.9123 63.3563 50.3717 67.2656 51.1967 71.1047H59.8967ZM90.1545 71.1047C89.7696 71.1044 89.3916 71.003 89.0584 70.8104C88.7252 70.6179 88.4484 70.3411 88.256 70.0078L84.2154 63.0094C84.0229 62.6759 83.9215 62.2976 83.9215 61.9125C83.9215 61.5274 84.0229 61.1491 84.2154 60.8156L89.2498 52.0922L99.0748 57.4547C99.4273 57.6468 99.7204 57.9319 99.9221 58.2791C100.124 58.6262 100.226 59.022 100.219 59.4234C100.139 63.3516 99.6833 67.2631 98.8592 71.1047H90.1545ZM76.0779 44.8969C75.7558 44.7213 75.3948 44.6293 75.0279 44.6293C74.661 44.6293 74.3 44.7213 73.9779 44.8969L64.0123 50.3344L69.0092 58.9875C69.2016 59.3208 69.4783 59.5976 69.8115 59.7901C70.1447 59.9827 70.5227 60.0841 70.9076 60.0844H79.1482C79.5332 60.0846 79.9114 59.9833 80.2447 59.7907C80.578 59.5982 80.8546 59.3211 81.0467 58.9875L86.0435 50.3391L76.0779 44.9016V44.8969ZM52.106 74.7609C53.9861 81.4492 56.9898 87.7689 60.9888 93.45L65.8404 85.05C66.0329 84.7165 66.1343 84.3382 66.1343 83.9531C66.1343 83.568 66.0329 83.1898 65.8404 82.8563L61.7998 75.8578C61.6074 75.5245 61.3306 75.2477 60.9974 75.0552C60.6642 74.8627 60.2862 74.7612 59.9013 74.7609H52.106ZM97.9404 74.7609C96.0618 81.4488 93.0596 87.7686 89.0623 93.45L84.2107 85.05C84.0182 84.7165 83.9168 84.3382 83.9168 83.9531C83.9168 83.568 84.0182 83.1898 84.2107 82.8563L88.256 75.8578C88.4484 75.5245 88.7252 75.2477 89.0584 75.0552C89.3916 74.8627 89.7696 74.7612 90.1545 74.7609H97.9451H97.9404ZM70.9076 85.7813C70.522 85.7807 70.143 85.8818 69.8089 86.0743C69.4747 86.2669 69.1973 86.5442 69.0045 86.8781L63.3795 96.6281C66.4088 100.392 69.8683 103.789 73.6873 106.748C74.0724 107.045 74.5445 107.205 75.0302 107.205C75.516 107.205 75.9881 107.045 76.3732 106.748C80.1908 103.787 83.6487 100.389 86.6763 96.6234L81.0513 86.8781C80.8589 86.5448 80.5822 86.268 80.249 86.0755C79.9158 85.883 79.5377 85.7815 79.1529 85.7813H70.9029H70.9076Z" fill="white"/>
</g>
<defs>
<linearGradient id="paint0_linear_11_4974" x1="169.036" y1="4.46361" x2="409.894" y2="220.419" gradientUnits="userSpaceOnUse">
<stop stop-color="white"/>
<stop offset="1" stop-color="#8256FF"/>
</linearGradient>
<radialGradient id="paint1_radial_11_4974" cx="0" cy="0" r="1" gradientUnits="userSpaceOnUse" gradientTransform="translate(75 75) rotate(90) scale(75)">
<stop stop-color="#8B63FF"/>
<stop offset="1" stop-color="#8B63FF" stop-opacity="0"/>
</radialGradient>
<clipPath id="clip0_11_4974">
<rect width="150" height="150" fill="white"/>
</clipPath>
</defs>
</svg>
