<svg width="249" height="38" viewBox="0 0 249 38" fill="none" xmlns="http://www.w3.org/2000/svg">
<path d="M21.8636 17.7386L16.2386 18.3523C16.0795 17.7841 15.8011 17.25 15.4034 16.75C15.017 16.25 14.4943 15.8466 13.8352 15.5398C13.1761 15.233 12.3693 15.0795 11.4148 15.0795C10.1307 15.0795 9.05114 15.358 8.17614 15.9148C7.3125 16.4716 6.88636 17.1932 6.89773 18.0795C6.88636 18.8409 7.16477 19.4602 7.73295 19.9375C8.3125 20.4148 9.26705 20.8068 10.5966 21.1136L15.0625 22.0682C17.5398 22.6023 19.3807 23.4489 20.5852 24.608C21.8011 25.767 22.4148 27.2841 22.4261 29.1591C22.4148 30.8068 21.9318 32.2614 20.9773 33.5227C20.0341 34.7727 18.7216 35.75 17.0398 36.4545C15.358 37.1591 13.4261 37.5114 11.2443 37.5114C8.03977 37.5114 5.46023 36.8409 3.50568 35.5C1.55114 34.1477 0.386364 32.267 0.0113637 29.858L6.02841 29.2784C6.30114 30.4602 6.88068 31.3523 7.76705 31.9545C8.65341 32.5568 9.80682 32.858 11.2273 32.858C12.6932 32.858 13.8693 32.5568 14.7557 31.9545C15.6534 31.3523 16.1023 30.608 16.1023 29.7216C16.1023 28.9716 15.8125 28.3523 15.233 27.8636C14.6648 27.375 13.7784 27 12.5739 26.7386L8.10795 25.8011C5.59659 25.2784 3.73864 24.3977 2.53409 23.1591C1.32955 21.9091 0.732955 20.3295 0.744318 18.4205C0.732955 16.8068 1.17045 15.4091 2.05682 14.2273C2.95455 13.0341 4.19886 12.1136 5.78977 11.4659C7.39205 10.8068 9.23864 10.4773 11.3295 10.4773C14.3977 10.4773 16.8125 11.1307 18.5739 12.4375C20.3466 13.7443 21.4432 15.5114 21.8636 17.7386ZM38.9347 37.5114C36.3778 37.5114 34.1619 36.9489 32.2869 35.8239C30.4119 34.6989 28.9574 33.125 27.9233 31.1023C26.9006 29.0795 26.3892 26.7159 26.3892 24.0114C26.3892 21.3068 26.9006 18.9375 27.9233 16.9034C28.9574 14.8693 30.4119 13.2898 32.2869 12.1648C34.1619 11.0398 36.3778 10.4773 38.9347 10.4773C41.4915 10.4773 43.7074 11.0398 45.5824 12.1648C47.4574 13.2898 48.9063 14.8693 49.929 16.9034C50.9631 18.9375 51.4801 21.3068 51.4801 24.0114C51.4801 26.7159 50.9631 29.0795 49.929 31.1023C48.9063 33.125 47.4574 34.6989 45.5824 35.8239C43.7074 36.9489 41.4915 37.5114 38.9347 37.5114ZM38.9688 32.5682C40.3551 32.5682 41.5142 32.1875 42.446 31.4261C43.3778 30.6534 44.071 29.6193 44.5256 28.3239C44.9915 27.0284 45.2244 25.5852 45.2244 23.9943C45.2244 22.392 44.9915 20.9432 44.5256 19.6477C44.071 18.3409 43.3778 17.3011 42.446 16.5284C41.5142 15.7557 40.3551 15.3693 38.9688 15.3693C37.5483 15.3693 36.3665 15.7557 35.4233 16.5284C34.4915 17.3011 33.7926 18.3409 33.3267 19.6477C32.8722 20.9432 32.6449 22.392 32.6449 23.9943C32.6449 25.5852 32.8722 27.0284 33.3267 28.3239C33.7926 29.6193 34.4915 30.6534 35.4233 31.4261C36.3665 32.1875 37.5483 32.5682 38.9688 32.5682ZM68.1378 37.5114C65.581 37.5114 63.3651 36.9489 61.4901 35.8239C59.6151 34.6989 58.1605 33.125 57.1264 31.1023C56.1037 29.0795 55.5923 26.7159 55.5923 24.0114C55.5923 21.3068 56.1037 18.9375 57.1264 16.9034C58.1605 14.8693 59.6151 13.2898 61.4901 12.1648C63.3651 11.0398 65.581 10.4773 68.1378 10.4773C70.6946 10.4773 72.9105 11.0398 74.7855 12.1648C76.6605 13.2898 78.1094 14.8693 79.1321 16.9034C80.1662 18.9375 80.6832 21.3068 80.6832 24.0114C80.6832 26.7159 80.1662 29.0795 79.1321 31.1023C78.1094 33.125 76.6605 34.6989 74.7855 35.8239C72.9105 36.9489 70.6946 37.5114 68.1378 37.5114ZM68.1719 32.5682C69.5582 32.5682 70.7173 32.1875 71.6491 31.4261C72.581 30.6534 73.2741 29.6193 73.7287 28.3239C74.1946 27.0284 74.4276 25.5852 74.4276 23.9943C74.4276 22.392 74.1946 20.9432 73.7287 19.6477C73.2741 18.3409 72.581 17.3011 71.6491 16.5284C70.7173 15.7557 69.5582 15.3693 68.1719 15.3693C66.7514 15.3693 65.5696 15.7557 64.6264 16.5284C63.6946 17.3011 62.9957 18.3409 62.5298 19.6477C62.0753 20.9432 61.848 22.392 61.848 23.9943C61.848 25.5852 62.0753 27.0284 62.5298 28.3239C62.9957 29.6193 63.6946 30.6534 64.6264 31.4261C65.5696 32.1875 66.7514 32.5682 68.1719 32.5682ZM92.0909 21.6591V37H85.9205V10.8182H91.8182V15.267H92.125C92.7273 13.8011 93.6875 12.6364 95.0057 11.7727C96.3352 10.9091 97.9773 10.4773 99.9318 10.4773C101.739 10.4773 103.313 10.8636 104.653 11.6364C106.006 12.4091 107.051 13.5284 107.79 14.9943C108.54 16.4602 108.909 18.2386 108.898 20.3295V37H102.727V21.2841C102.727 19.5341 102.273 18.1648 101.364 17.1761C100.466 16.1875 99.2216 15.6932 97.6307 15.6932C96.5511 15.6932 95.5909 15.9318 94.75 16.4091C93.9205 16.875 93.267 17.5511 92.7898 18.4375C92.3239 19.3239 92.0909 20.3977 92.0909 21.6591ZM122.705 37.5284C121.045 37.5284 119.551 37.233 118.222 36.642C116.903 36.0398 115.858 35.1534 115.085 33.983C114.324 32.8125 113.943 31.3693 113.943 29.6534C113.943 28.1761 114.216 26.9545 114.761 25.9886C115.307 25.0227 116.051 24.25 116.994 23.6705C117.938 23.0909 119 22.6534 120.182 22.358C121.375 22.0511 122.608 21.8295 123.881 21.6932C125.415 21.5341 126.659 21.392 127.614 21.267C128.568 21.1307 129.261 20.9261 129.693 20.6534C130.136 20.3693 130.358 19.9318 130.358 19.3409V19.2386C130.358 17.9545 129.977 16.9602 129.216 16.2557C128.455 15.5511 127.358 15.1989 125.926 15.1989C124.415 15.1989 123.216 15.5284 122.33 16.1875C121.455 16.8466 120.864 17.625 120.557 18.5227L114.795 17.7045C115.25 16.1136 116 14.7841 117.045 13.7159C118.091 12.6364 119.369 11.8295 120.881 11.2955C122.392 10.75 124.063 10.4773 125.892 10.4773C127.153 10.4773 128.409 10.625 129.659 10.9205C130.909 11.2159 132.051 11.7045 133.085 12.3864C134.119 13.0568 134.949 13.9716 135.574 15.1307C136.21 16.2898 136.528 17.7386 136.528 19.4773V37H130.597V33.4034H130.392C130.017 34.1307 129.489 34.8125 128.807 35.4489C128.136 36.0739 127.29 36.5795 126.267 36.9659C125.256 37.3409 124.068 37.5284 122.705 37.5284ZM124.307 32.9943C125.545 32.9943 126.619 32.75 127.528 32.2614C128.438 31.7614 129.136 31.1023 129.625 30.2841C130.125 29.4659 130.375 28.5739 130.375 27.608V24.5227C130.182 24.6818 129.852 24.8295 129.386 24.9659C128.932 25.1023 128.42 25.2216 127.852 25.3239C127.284 25.4261 126.722 25.517 126.165 25.5966C125.608 25.6761 125.125 25.7443 124.716 25.8011C123.795 25.9261 122.972 26.1307 122.244 26.4148C121.517 26.6989 120.943 27.0966 120.523 27.608C120.102 28.108 119.892 28.7557 119.892 29.5511C119.892 30.6875 120.307 31.5455 121.136 32.125C121.966 32.7045 123.023 32.9943 124.307 32.9943ZM142.733 37V10.8182H148.631V15.267H148.938C149.483 13.767 150.386 12.5966 151.648 11.7557C152.909 10.9034 154.415 10.4773 156.165 10.4773C157.938 10.4773 159.432 10.9091 160.648 11.7727C161.875 12.625 162.739 13.7898 163.239 15.267H163.511C164.091 13.8125 165.068 12.6534 166.443 11.7898C167.83 10.9148 169.472 10.4773 171.369 10.4773C173.778 10.4773 175.744 11.2386 177.267 12.7614C178.79 14.2841 179.551 16.5057 179.551 19.4261V37H173.364V20.3807C173.364 18.7557 172.932 17.5682 172.068 16.8182C171.205 16.0568 170.148 15.6761 168.898 15.6761C167.409 15.6761 166.244 16.142 165.403 17.0739C164.574 17.9943 164.159 19.1932 164.159 20.6705V37H158.108V20.125C158.108 18.7727 157.699 17.6932 156.881 16.8864C156.074 16.0795 155.017 15.6761 153.71 15.6761C152.824 15.6761 152.017 15.9034 151.29 16.358C150.563 16.8011 149.983 17.4318 149.551 18.25C149.119 19.0568 148.903 20 148.903 21.0795V37H142.733ZM185.811 37V10.8182H191.982V37H185.811ZM188.913 7.10227C187.936 7.10227 187.095 6.77841 186.391 6.13068C185.686 5.47159 185.334 4.68182 185.334 3.76136C185.334 2.82954 185.686 2.03977 186.391 1.39204C187.095 0.732953 187.936 0.403408 188.913 0.403408C189.902 0.403408 190.743 0.732953 191.436 1.39204C192.141 2.03977 192.493 2.82954 192.493 3.76136C192.493 4.68182 192.141 5.47159 191.436 6.13068C190.743 6.77841 189.902 7.10227 188.913 7.10227ZM202.128 37.375C201.094 37.375 200.207 37.0114 199.469 36.2841C198.73 35.5568 198.366 34.6705 198.378 33.625C198.366 32.6023 198.73 31.7273 199.469 31C200.207 30.2727 201.094 29.9091 202.128 29.9091C203.128 29.9091 203.997 30.2727 204.736 31C205.486 31.7273 205.866 32.6023 205.878 33.625C205.866 34.3182 205.685 34.9489 205.332 35.517C204.991 36.0852 204.537 36.5398 203.969 36.8807C203.412 37.2102 202.798 37.375 202.128 37.375ZM212.249 37V10.8182H218.419V37H212.249ZM215.351 7.10227C214.374 7.10227 213.533 6.77841 212.828 6.13068C212.124 5.47159 211.771 4.68182 211.771 3.76136C211.771 2.82954 212.124 2.03977 212.828 1.39204C213.533 0.732953 214.374 0.403408 215.351 0.403408C216.339 0.403408 217.18 0.732953 217.874 1.39204C218.578 2.03977 218.93 2.82954 218.93 3.76136C218.93 4.68182 218.578 5.47159 217.874 6.13068C217.18 6.77841 216.339 7.10227 215.351 7.10227ZM236.185 37.5114C233.628 37.5114 231.412 36.9489 229.537 35.8239C227.662 34.6989 226.207 33.125 225.173 31.1023C224.151 29.0795 223.639 26.7159 223.639 24.0114C223.639 21.3068 224.151 18.9375 225.173 16.9034C226.207 14.8693 227.662 13.2898 229.537 12.1648C231.412 11.0398 233.628 10.4773 236.185 10.4773C238.741 10.4773 240.957 11.0398 242.832 12.1648C244.707 13.2898 246.156 14.8693 247.179 16.9034C248.213 18.9375 248.73 21.3068 248.73 24.0114C248.73 26.7159 248.213 29.0795 247.179 31.1023C246.156 33.125 244.707 34.6989 242.832 35.8239C240.957 36.9489 238.741 37.5114 236.185 37.5114ZM236.219 32.5682C237.605 32.5682 238.764 32.1875 239.696 31.4261C240.628 30.6534 241.321 29.6193 241.776 28.3239C242.241 27.0284 242.474 25.5852 242.474 23.9943C242.474 22.392 242.241 20.9432 241.776 19.6477C241.321 18.3409 240.628 17.3011 239.696 16.5284C238.764 15.7557 237.605 15.3693 236.219 15.3693C234.798 15.3693 233.616 15.7557 232.673 16.5284C231.741 17.3011 231.043 18.3409 230.577 19.6477C230.122 20.9432 229.895 22.392 229.895 23.9943C229.895 25.5852 230.122 27.0284 230.577 28.3239C231.043 29.6193 231.741 30.6534 232.673 31.4261C233.616 32.1875 234.798 32.5682 236.219 32.5682Z" fill="white"/>
</svg>
