<svg width="151" height="51" viewBox="0 0 151 51" fill="none" xmlns="http://www.w3.org/2000/svg">
<g filter="url(#filter0_d_510_527)">
<rect x="4" width="143" height="43" rx="20" fill="url(#paint0_linear_510_527)"/>
<path d="M53.5376 19.6172C53.4912 19.183 53.2957 18.8449 52.951 18.603C52.6096 18.361 52.1655 18.2401 51.6186 18.2401C51.2341 18.2401 50.9044 18.2981 50.6293 18.4141C50.3542 18.5301 50.1437 18.6875 49.9979 18.8864C49.852 19.0852 49.7775 19.3123 49.7741 19.5675C49.7741 19.7796 49.8222 19.9635 49.9183 20.1193C50.0178 20.2751 50.152 20.4077 50.321 20.517C50.4901 20.6231 50.6773 20.7126 50.8828 20.7855C51.0883 20.8584 51.2955 20.9197 51.5043 20.9695L52.4588 21.2081C52.8433 21.2976 53.2128 21.4186 53.5675 21.571C53.9254 21.7235 54.2453 21.9157 54.527 22.1477C54.812 22.3797 55.0374 22.6598 55.2031 22.9879C55.3688 23.3161 55.4517 23.7005 55.4517 24.1413C55.4517 24.7379 55.2992 25.2633 54.9943 25.7173C54.6894 26.1681 54.2486 26.5211 53.6719 26.7763C53.0985 27.0282 52.4041 27.1541 51.5888 27.1541C50.7966 27.1541 50.1089 27.0315 49.5256 26.7862C48.9455 26.541 48.4915 26.183 48.1634 25.7124C47.8385 25.2417 47.6629 24.6683 47.6364 23.9922H49.451C49.4775 24.3468 49.5869 24.6418 49.7791 24.8771C49.9714 25.1125 50.2216 25.2881 50.5298 25.4041C50.8414 25.5201 51.1894 25.5781 51.5739 25.5781C51.9749 25.5781 52.3262 25.5185 52.6278 25.3991C52.9328 25.2765 53.1714 25.1075 53.3438 24.892C53.5161 24.6733 53.6039 24.4181 53.6072 24.1264C53.6039 23.8613 53.526 23.6425 53.3736 23.4702C53.2211 23.2945 53.0073 23.1487 52.7322 23.0327C52.4605 22.9134 52.1423 22.8073 51.7777 22.7145L50.6193 22.4162C49.7808 22.2008 49.1179 21.8743 48.6307 21.4368C48.1468 20.996 47.9048 20.411 47.9048 19.6818C47.9048 19.0819 48.0672 18.5566 48.392 18.1058C48.7202 17.6551 49.166 17.3054 49.7294 17.0568C50.2929 16.8049 50.9309 16.679 51.6435 16.679C52.366 16.679 52.9991 16.8049 53.5426 17.0568C54.0895 17.3054 54.5187 17.6518 54.8303 18.0959C55.1418 18.5367 55.3026 19.0438 55.3125 19.6172H53.5376ZM61.8837 23.7884V19.3636H63.6834V27H61.9384V25.6428H61.8588C61.6865 26.0703 61.4031 26.42 61.0087 26.6918C60.6176 26.9635 60.1354 27.0994 59.562 27.0994C59.0615 27.0994 58.619 26.9884 58.2346 26.7663C57.8534 26.541 57.5551 26.2145 57.3397 25.7869C57.1242 25.3561 57.0165 24.8357 57.0165 24.2259V19.3636H58.8162V23.9474C58.8162 24.4313 58.9488 24.8158 59.214 25.1009C59.4791 25.3859 59.8271 25.5284 60.258 25.5284C60.5231 25.5284 60.78 25.4638 61.0286 25.3345C61.2772 25.2053 61.481 25.013 61.6401 24.7578C61.8025 24.4993 61.8837 24.1761 61.8837 23.7884ZM65.6136 27V16.8182H67.4134V20.6264H67.4879C67.5807 20.4408 67.7116 20.2436 67.8807 20.0348C68.0497 19.8227 68.2784 19.642 68.5668 19.4929C68.8551 19.3404 69.223 19.2642 69.6705 19.2642C70.2604 19.2642 70.7924 19.415 71.2663 19.7166C71.7436 20.0149 72.1214 20.4574 72.3999 21.044C72.6816 21.6274 72.8224 22.3433 72.8224 23.1918C72.8224 24.0303 72.6849 24.7429 72.4098 25.3295C72.1347 25.9162 71.7602 26.3636 71.2862 26.6719C70.8123 26.9801 70.2753 27.1342 69.6754 27.1342C69.2379 27.1342 68.875 27.0613 68.5866 26.9155C68.2983 26.7696 68.0663 26.594 67.8906 26.3885C67.7183 26.1797 67.584 25.9825 67.4879 25.7969H67.3835V27H65.6136ZM67.3786 23.1818C67.3786 23.6757 67.4482 24.1082 67.5874 24.4794C67.7299 24.8506 67.9337 25.1406 68.1989 25.3494C68.4673 25.5549 68.7921 25.6577 69.1733 25.6577C69.571 25.6577 69.9041 25.5516 70.1726 25.3395C70.4411 25.1241 70.6432 24.8307 70.7791 24.4595C70.9183 24.085 70.9879 23.6591 70.9879 23.1818C70.9879 22.7079 70.92 22.2869 70.7841 21.919C70.6482 21.5511 70.446 21.2628 70.1776 21.054C69.9091 20.8452 69.5743 20.7408 69.1733 20.7408C68.7888 20.7408 68.4624 20.8419 68.1939 21.044C67.9254 21.2462 67.7216 21.5296 67.5824 21.8942C67.4465 22.2588 67.3786 22.688 67.3786 23.1818ZM74.3525 27V19.3636H76.0726V20.6612H76.1621C76.3212 20.2237 76.5847 19.8823 76.9526 19.6371C77.3205 19.3885 77.7596 19.2642 78.2701 19.2642C78.7871 19.2642 79.223 19.3902 79.5776 19.642C79.9355 19.8906 80.1874 20.2304 80.3333 20.6612H80.4128C80.5819 20.237 80.8669 19.8989 81.2679 19.647C81.6723 19.3918 82.1512 19.2642 82.7047 19.2642C83.4074 19.2642 83.9808 19.4863 84.4249 19.9304C84.869 20.3745 85.0911 21.0225 85.0911 21.8743V27H83.2864V22.1527C83.2864 21.6787 83.1605 21.3324 82.9086 21.1136C82.6567 20.8916 82.3484 20.7805 81.9838 20.7805C81.5497 20.7805 81.2099 20.9164 80.9647 21.1882C80.7227 21.4567 80.6017 21.8063 80.6017 22.2372V27H78.8368V22.0781C78.8368 21.6837 78.7175 21.3688 78.4789 21.1335C78.2435 20.8982 77.9353 20.7805 77.5542 20.7805C77.2956 20.7805 77.0603 20.8468 76.8482 20.9794C76.6361 21.1087 76.467 21.2926 76.3411 21.5312C76.2151 21.7666 76.1522 22.0417 76.1522 22.3565V27H74.3525ZM86.9169 27V19.3636H88.7166V27H86.9169ZM87.8217 18.2798C87.5367 18.2798 87.2914 18.1854 87.0859 17.9964C86.8804 17.8042 86.7777 17.5739 86.7777 17.3054C86.7777 17.0336 86.8804 16.8033 87.0859 16.6143C87.2914 16.4221 87.5367 16.326 87.8217 16.326C88.1101 16.326 88.3554 16.4221 88.5575 16.6143C88.763 16.8033 88.8658 17.0336 88.8658 17.3054C88.8658 17.5739 88.763 17.8042 88.5575 17.9964C88.3554 18.1854 88.1101 18.2798 87.8217 18.2798ZM94.3805 19.3636V20.7557H89.9906V19.3636H94.3805ZM91.0744 17.5341H92.8741V24.7031C92.8741 24.9451 92.9106 25.1307 92.9835 25.2599C93.0597 25.3859 93.1592 25.4721 93.2818 25.5185C93.4044 25.5649 93.5403 25.5881 93.6895 25.5881C93.8021 25.5881 93.9049 25.5798 93.9977 25.5632C94.0938 25.5466 94.1667 25.5317 94.2164 25.5185L94.5197 26.9254C94.4236 26.9586 94.286 26.995 94.1071 27.0348C93.9314 27.0746 93.716 27.0978 93.4608 27.1044C93.01 27.1177 92.604 27.0497 92.2427 26.9006C91.8815 26.7481 91.5948 26.5128 91.3826 26.1946C91.1738 25.8764 91.0711 25.4787 91.0744 25.0014V17.5341Z" fill="#C2C2C2"/>
<path d="M122 23.0058L129.59 23.0058L126.29 26.2958C126.102 26.4841 125.996 26.7395 125.996 27.0058C125.996 27.2721 126.102 27.5275 126.29 27.7158C126.478 27.9041 126.734 28.0099 127 28.0099C127.266 28.0099 127.522 27.9041 127.71 27.7158L132.71 22.7158C132.801 22.6207 132.873 22.5085 132.92 22.3858C133.02 22.1423 133.02 21.8693 132.92 21.6258C132.873 21.503 132.801 21.3909 132.71 21.2958L127.71 16.2958C127.617 16.2021 127.507 16.1277 127.385 16.0769C127.263 16.0261 127.132 16 127 16C126.868 16 126.737 16.0261 126.616 16.0769C126.494 16.1277 126.383 16.2021 126.29 16.2958C126.196 16.3888 126.122 16.4994 126.071 16.6212C126.02 16.7431 125.994 16.8738 125.994 17.0058C125.994 17.1378 126.02 17.2685 126.071 17.3904C126.122 17.5122 126.196 17.6228 126.29 17.7158L129.59 21.0058L122 21.0058C121.735 21.0058 121.481 21.1112 121.293 21.2987C121.105 21.4862 121 21.7406 121 22.0058C121 22.271 121.105 22.5254 121.293 22.7129C121.481 22.9004 121.735 23.0058 122 23.0058Z" fill="#C2C2C2"/>
</g>
<defs>
<filter id="filter0_d_510_527" x="0" y="0" width="151" height="51" filterUnits="userSpaceOnUse" color-interpolation-filters="sRGB">
<feFlood flood-opacity="0" result="BackgroundImageFix"/>
<feColorMatrix in="SourceAlpha" type="matrix" values="0 0 0 0 0 0 0 0 0 0 0 0 0 0 0 0 0 0 127 0" result="hardAlpha"/>
<feOffset dy="4"/>
<feGaussianBlur stdDeviation="2"/>
<feComposite in2="hardAlpha" operator="out"/>
<feColorMatrix type="matrix" values="0 0 0 0 0 0 0 0 0 0 0 0 0 0 0 0 0 0 0.25 0"/>
<feBlend mode="normal" in2="BackgroundImageFix" result="effect1_dropShadow_510_527"/>
<feBlend mode="normal" in="SourceGraphic" in2="effect1_dropShadow_510_527" result="shape"/>
</filter>
<linearGradient id="paint0_linear_510_527" x1="4" y1="21.0943" x2="186.585" y2="22.6258" gradientUnits="userSpaceOnUse">
<stop stop-color="#5C2C69"/>
<stop offset="1" stop-color="#2C4C84"/>
</linearGradient>
</defs>
</svg>
