<svg width="138" height="56" viewBox="0 0 138 56" fill="none" xmlns="http://www.w3.org/2000/svg">
<rect y="0.5" width="138" height="55" rx="27.5" fill="url(#paint0_linear_6_32)"/>
<path d="M28.483 21.8636H30.5909V29.4659C30.5909 30.2992 30.3939 31.0322 30 31.6648C29.6098 32.2973 29.0606 32.7917 28.3523 33.1477C27.6439 33.5 26.8163 33.6761 25.8693 33.6761C24.9186 33.6761 24.089 33.5 23.3807 33.1477C22.6723 32.7917 22.1231 32.2973 21.733 31.6648C21.3428 31.0322 21.1477 30.2992 21.1477 29.4659V21.8636H23.2557V29.2898C23.2557 29.7746 23.3617 30.2064 23.5739 30.5852C23.7898 30.964 24.0928 31.2614 24.483 31.4773C24.8731 31.6894 25.3352 31.7955 25.8693 31.7955C26.4034 31.7955 26.8655 31.6894 27.2557 31.4773C27.6496 31.2614 27.9527 30.964 28.1648 30.5852C28.3769 30.2064 28.483 29.7746 28.483 29.2898V21.8636ZM39.6889 27.0795L37.8139 27.2841C37.7609 27.0947 37.6681 26.9167 37.5355 26.75C37.4067 26.5833 37.2325 26.4489 37.0128 26.3466C36.7931 26.2443 36.5241 26.1932 36.206 26.1932C35.7779 26.1932 35.4181 26.286 35.1264 26.4716C34.8385 26.6572 34.6965 26.8977 34.7003 27.1932C34.6965 27.447 34.7893 27.6534 34.9787 27.8125C35.1719 27.9716 35.4901 28.1023 35.9332 28.2045L37.4219 28.5227C38.2476 28.7008 38.8613 28.983 39.2628 29.3693C39.6681 29.7557 39.8726 30.2614 39.8764 30.8864C39.8726 31.4356 39.7116 31.9205 39.3935 32.3409C39.0791 32.7576 38.6416 33.0833 38.081 33.3182C37.5204 33.553 36.8764 33.6705 36.1491 33.6705C35.081 33.6705 34.2211 33.447 33.5696 33C32.9181 32.5492 32.5298 31.9223 32.4048 31.1193L34.4105 30.9261C34.5014 31.3201 34.6946 31.6174 34.9901 31.8182C35.2855 32.0189 35.67 32.1193 36.1435 32.1193C36.6321 32.1193 37.0241 32.0189 37.3196 31.8182C37.6188 31.6174 37.7685 31.3693 37.7685 31.0739C37.7685 30.8239 37.6719 30.6174 37.4787 30.4545C37.2893 30.2917 36.9938 30.1667 36.5923 30.0795L35.1037 29.767C34.2666 29.5928 33.6473 29.2992 33.2457 28.8864C32.8442 28.4697 32.6454 27.9432 32.6491 27.3068C32.6454 26.7689 32.7912 26.303 33.0866 25.9091C33.3859 25.5114 33.8007 25.2045 34.331 24.9886C34.8651 24.7689 35.4806 24.6591 36.1776 24.6591C37.2003 24.6591 38.0052 24.8769 38.5923 25.3125C39.1832 25.7481 39.5488 26.3371 39.6889 27.0795ZM45.4361 33.6705C44.5611 33.6705 43.8054 33.4886 43.169 33.125C42.5365 32.7576 42.0497 32.2386 41.7088 31.5682C41.3679 30.8939 41.1974 30.1004 41.1974 29.1875C41.1974 28.2898 41.3679 27.5019 41.7088 26.8239C42.0535 26.142 42.5346 25.6117 43.152 25.233C43.7694 24.8504 44.4948 24.6591 45.3281 24.6591C45.866 24.6591 46.3736 24.7462 46.8509 24.9205C47.3319 25.0909 47.7562 25.3561 48.1236 25.7159C48.4948 26.0758 48.7865 26.5341 48.9986 27.0909C49.2107 27.6439 49.3168 28.303 49.3168 29.0682V29.6989H42.1634V28.3125H47.3452C47.3414 27.9186 47.2562 27.5682 47.0895 27.2614C46.9228 26.9508 46.6899 26.7064 46.3906 26.5284C46.0952 26.3504 45.7505 26.2614 45.3565 26.2614C44.9361 26.2614 44.5668 26.3636 44.2486 26.5682C43.9304 26.7689 43.6823 27.0341 43.5043 27.3636C43.33 27.6894 43.241 28.0473 43.2372 28.4375V29.6477C43.2372 30.1553 43.33 30.5909 43.5156 30.9545C43.7012 31.3144 43.9607 31.5909 44.294 31.7841C44.6274 31.9735 45.0175 32.0682 45.4645 32.0682C45.7637 32.0682 46.0346 32.0265 46.277 31.9432C46.5194 31.8561 46.7296 31.7292 46.9077 31.5625C47.0857 31.3958 47.2202 31.1894 47.3111 30.9432L49.2315 31.1591C49.1103 31.6667 48.8793 32.1098 48.5384 32.4886C48.2012 32.8636 47.7694 33.1553 47.2429 33.3636C46.7164 33.5682 46.1141 33.6705 45.4361 33.6705ZM55.0256 33.5V24.7727H57.0824V33.5H55.0256ZM56.0597 23.5341C55.7339 23.5341 55.4536 23.4261 55.2188 23.2102C54.9839 22.9905 54.8665 22.7273 54.8665 22.4205C54.8665 22.1098 54.9839 21.8466 55.2188 21.6307C55.4536 21.411 55.7339 21.3011 56.0597 21.3011C56.3892 21.3011 56.6695 21.411 56.9006 21.6307C57.1354 21.8466 57.2528 22.1098 57.2528 22.4205C57.2528 22.7273 57.1354 22.9905 56.9006 23.2102C56.6695 23.4261 56.3892 23.5341 56.0597 23.5341ZM63.5554 24.7727V26.3636H58.5384V24.7727H63.5554ZM59.777 22.6818H61.8338V30.875C61.8338 31.1515 61.8755 31.3636 61.9588 31.5114C62.0459 31.6553 62.1596 31.7538 62.2997 31.8068C62.4399 31.8598 62.5952 31.8864 62.7656 31.8864C62.8944 31.8864 63.0118 31.8769 63.1179 31.858C63.2277 31.839 63.3111 31.822 63.3679 31.8068L63.7145 33.4148C63.6046 33.4527 63.4474 33.4943 63.2429 33.5398C63.0421 33.5852 62.7959 33.6117 62.5043 33.6193C61.9891 33.6345 61.5251 33.5568 61.1122 33.3864C60.6993 33.2121 60.3717 32.9432 60.1293 32.5795C59.8906 32.2159 59.7732 31.7614 59.777 31.2159V22.6818ZM78.8977 21.8636V33.5H77.0227L71.5398 25.5739H71.4432V33.5H69.3352V21.8636H71.2216L76.6989 29.7955H76.8011V21.8636H78.8977ZM84.9105 33.6705C84.0582 33.6705 83.3196 33.483 82.6946 33.108C82.0696 32.733 81.5848 32.2083 81.2401 31.5341C80.8991 30.8598 80.7287 30.072 80.7287 29.1705C80.7287 28.2689 80.8991 27.4792 81.2401 26.8011C81.5848 26.1231 82.0696 25.5966 82.6946 25.2216C83.3196 24.8466 84.0582 24.6591 84.9105 24.6591C85.7628 24.6591 86.5014 24.8466 87.1264 25.2216C87.7514 25.5966 88.2344 26.1231 88.5753 26.8011C88.92 27.4792 89.0923 28.2689 89.0923 29.1705C89.0923 30.072 88.92 30.8598 88.5753 31.5341C88.2344 32.2083 87.7514 32.733 87.1264 33.108C86.5014 33.483 85.7628 33.6705 84.9105 33.6705ZM84.9219 32.0227C85.384 32.0227 85.7704 31.8958 86.081 31.642C86.3916 31.3845 86.6226 31.0398 86.7741 30.608C86.9295 30.1761 87.0071 29.6951 87.0071 29.1648C87.0071 28.6307 86.9295 28.1477 86.7741 27.7159C86.6226 27.2803 86.3916 26.9337 86.081 26.6761C85.7704 26.4186 85.384 26.2898 84.9219 26.2898C84.4484 26.2898 84.0545 26.4186 83.7401 26.6761C83.4295 26.9337 83.1965 27.2803 83.0412 27.7159C82.8897 28.1477 82.8139 28.6307 82.8139 29.1648C82.8139 29.6951 82.8897 30.1761 83.0412 30.608C83.1965 31.0398 83.4295 31.3845 83.7401 31.642C84.0545 31.8958 84.4484 32.0227 84.9219 32.0227ZM92.3892 33.5L89.9233 24.7727H92.0199L93.554 30.9091H93.6335L95.2017 24.7727H97.2756L98.8438 30.875H98.929L100.44 24.7727H102.543L100.071 33.5H97.929L96.2926 27.6023H96.1733L94.5369 33.5H92.3892Z" fill="white"/>
<path d="M111.129 34C110.452 34 110 33.5769 110 32.9423C110 32.625 110.113 32.4135 110.339 32.2019L114.29 28.5L110.339 24.7981C109.887 24.375 109.887 23.7404 110.339 23.3173C110.79 22.8942 111.468 22.8942 111.919 23.3173L116.661 27.7596C117.113 28.1827 117.113 28.8173 116.661 29.2404L111.919 33.6827C111.694 33.8942 111.355 34 111.129 34Z" fill="#D9CEED"/>
<defs>
<linearGradient id="paint0_linear_6_32" x1="9.25691e-07" y1="27.4811" x2="138" y2="27.4811" gradientUnits="userSpaceOnUse">
<stop stop-color="#B341B1" stop-opacity="0.3"/>
<stop offset="1" stop-color="#3585E0" stop-opacity="0.3"/>
</linearGradient>
</defs>
</svg>
